<svg width="66" height="65" viewBox="0 0 66 65" fill="none" xmlns="http://www.w3.org/2000/svg">
<path d="M28.328 37V19.864H32.84C34.936 19.864 36.488 20.288 37.496 21.136C38.52 21.984 39.032 23.216 39.032 24.832C39.032 25.92 38.784 26.856 38.288 27.64C37.792 28.408 37.056 29 36.08 29.416C35.12 29.832 33.928 30.04 32.504 30.04H30.488V37H28.328ZM26.24 33.736V32.176H34.448V33.736H26.24ZM26.24 30.04V28.216H31.736V30.04H26.24ZM32.192 28.216C33.168 28.216 33.992 28.112 34.664 27.904C35.352 27.696 35.88 27.352 36.248 26.872C36.616 26.392 36.8 25.736 36.8 24.904C36.8 23.816 36.464 23.008 35.792 22.48C35.12 21.952 34.072 21.688 32.648 21.688H30.488V28.216H32.192Z" fill="#FF7C00"/>
<path fill-rule="evenodd" clip-rule="evenodd" d="M19.2387 20.0343V30.0686H14.9383C10.8553 30.0686 10.6379 30.1339 10.6379 31.3644C10.6379 32.2835 13.8873 35.9062 21.819 43.8298L33 55L44.1811 43.8298C52.1128 35.9062 55.3621 32.2835 55.3621 31.3644C55.3621 30.1339 55.1448 30.0686 51.0617 30.0686H46.7613V20.6077C46.7613 12.5802 46.6312 11.1468 45.9013 11.1468C45.1696 11.1468 45.0412 12.6439 45.0412 21.181V31.2153H49.3416C52.4184 31.2153 53.642 31.4212 53.642 31.9378C53.642 32.3357 48.9975 37.2995 43.321 42.9698L33 53.2787L22.6791 42.9698C17.0025 37.2995 12.3581 32.3357 12.3581 31.9378C12.3581 31.4212 13.5817 31.2153 16.6585 31.2153H20.9589V20.6077C20.9589 11.5608 20.8322 10 20.0988 10C19.3672 10 19.2387 11.4971 19.2387 20.0343ZM53.9344 13.4495C54.1328 13.77 54.5347 13.8841 54.8283 13.7024C55.6236 13.211 55.4757 12.8669 54.4682 12.8669C53.9768 12.8669 53.7366 13.129 53.9344 13.4495ZM16.6642 16.3164C16.8626 16.637 17.2646 16.7511 17.5581 16.5693C18.3534 16.0779 18.2055 15.7339 17.1981 15.7339C16.7067 15.7339 16.4664 15.9959 16.6642 16.3164ZM48.2005 16.3164C48.3989 16.637 48.8009 16.7511 49.0944 16.5693C49.8897 16.0779 49.7418 15.7339 48.7344 15.7339C48.243 15.7339 48.0027 15.9959 48.2005 16.3164ZM53.9344 16.3164C54.1328 16.637 54.5347 16.7511 54.8283 16.5693C55.6236 16.0779 55.4757 15.7339 54.4682 15.7339C53.9768 15.7339 53.7366 15.9959 53.9344 16.3164ZM16.6642 19.1834C16.8626 19.5039 17.2646 19.618 17.5581 19.4362C18.3534 18.9448 18.2055 18.6008 17.1981 18.6008C16.7067 18.6008 16.4664 18.8628 16.6642 19.1834ZM48.2005 19.1834C48.3989 19.5039 48.8009 19.618 49.0944 19.4362C49.8897 18.9448 49.7418 18.6008 48.7344 18.6008C48.243 18.6008 48.0027 18.8628 48.2005 19.1834ZM10.9304 22.0503C11.1288 22.3708 11.5307 22.4849 11.8243 22.3032C12.6196 21.8118 12.4716 21.4677 11.4642 21.4677C10.9728 21.4677 10.7325 21.7298 10.9304 22.0503ZM16.6642 22.0503C16.8626 22.3708 17.2646 22.4849 17.5581 22.3032C18.3534 21.8118 18.2055 21.4677 17.1981 21.4677C16.7067 21.4677 16.4664 21.7298 16.6642 22.0503ZM48.2005 22.0503C48.3989 22.3708 48.8009 22.4849 49.0944 22.3032C49.8897 21.8118 49.7418 21.4677 48.7344 21.4677C48.243 21.4677 48.0027 21.7298 48.2005 22.0503ZM53.9344 22.0503C54.1328 22.3708 54.5347 22.4849 54.8283 22.3032C55.6236 21.8118 55.4757 21.4677 54.4682 21.4677C53.9768 21.4677 53.7366 21.7298 53.9344 22.0503ZM10.9304 24.9172C11.1288 25.2378 11.5307 25.3519 11.8243 25.1701C12.6196 24.6787 12.4716 24.3347 11.4642 24.3347C10.9728 24.3347 10.7325 24.5967 10.9304 24.9172ZM13.7973 24.9172C13.9957 25.2378 14.3976 25.3519 14.6912 25.1701C15.4865 24.6787 15.3386 24.3347 14.3311 24.3347C13.8397 24.3347 13.5995 24.5967 13.7973 24.9172ZM16.6642 24.9172C16.8626 25.2378 17.2646 25.3519 17.5581 25.1701C18.3534 24.6787 18.2055 24.3347 17.1981 24.3347C16.7067 24.3347 16.4664 24.5967 16.6642 24.9172ZM48.2005 24.9172C48.3989 25.2378 48.8009 25.3519 49.0944 25.1701C49.8897 24.6787 49.7418 24.3347 48.7344 24.3347C48.243 24.3347 48.0027 24.5967 48.2005 24.9172ZM51.0675 24.9172C51.2659 25.2378 51.6678 25.3519 51.9614 25.1701C52.7567 24.6787 52.6087 24.3347 51.6013 24.3347C51.1099 24.3347 50.8697 24.5967 51.0675 24.9172ZM53.9344 24.9172C54.1328 25.2378 54.5347 25.3519 54.8283 25.1701C55.6236 24.6787 55.4757 24.3347 54.4682 24.3347C53.9768 24.3347 53.7366 24.5967 53.9344 24.9172ZM10.9304 27.7842C11.1288 28.1047 11.5307 28.2188 11.8243 28.037C12.6196 27.5456 12.4716 27.2016 11.4642 27.2016C10.9728 27.2016 10.7325 27.4637 10.9304 27.7842ZM13.7973 27.7842C13.9957 28.1047 14.3976 28.2188 14.6912 28.037C15.4865 27.5456 15.3386 27.2016 14.3311 27.2016C13.8397 27.2016 13.5995 27.4637 13.7973 27.7842ZM16.6642 27.7842C16.8626 28.1047 17.2646 28.2188 17.5581 28.037C18.3534 27.5456 18.2055 27.2016 17.1981 27.2016C16.7067 27.2016 16.4664 27.4637 16.6642 27.7842ZM48.2005 27.7842C48.3989 28.1047 48.8009 28.2188 49.0944 28.037C49.8897 27.5456 49.7418 27.2016 48.7344 27.2016C48.243 27.2016 48.0027 27.4637 48.2005 27.7842ZM51.0675 27.7842C51.2659 28.1047 51.6678 28.2188 51.9614 28.037C52.7567 27.5456 52.6087 27.2016 51.6013 27.2016C51.1099 27.2016 50.8697 27.4637 51.0675 27.7842ZM53.9344 27.7842C54.1328 28.1047 54.5347 28.2188 54.8283 28.037C55.6236 27.5456 55.4757 27.2016 54.4682 27.2016C53.9768 27.2016 53.7366 27.4637 53.9344 27.7842Z" fill="#FF7C00"/>
<rect x="1" y="0.5" width="64" height="64" rx="32" stroke="#3D4857"/>
</svg>
