<svg width="24" height="24" viewBox="0 0 24 24" fill="none" xmlns="http://www.w3.org/2000/svg">
<path d="M12.4375 6.75C12.4375 6.50838 12.2416 6.3125 12 6.3125C11.7584 6.3125 11.5625 6.50838 11.5625 6.75V11.5625H6.75C6.50838 11.5625 6.3125 11.7584 6.3125 12C6.3125 12.2416 6.50838 12.4375 6.75 12.4375H11.5625V17.25C11.5625 17.4916 11.7584 17.6875 12 17.6875C12.2416 17.6875 12.4375 17.4916 12.4375 17.25V12.4375H17.25C17.4916 12.4375 17.6875 12.2416 17.6875 12C17.6875 11.7584 17.4916 11.5625 17.25 11.5625H12.4375V6.75Z" fill="white"/>
</svg>
