<svg width="66" height="65" viewBox="0 0 66 65" fill="none" xmlns="http://www.w3.org/2000/svg">
<path fill-rule="evenodd" clip-rule="evenodd" d="M50.9085 10.3764C50.6055 10.4989 48.6163 13.9013 46.4889 17.937L42.6202 25.2745L40.2001 25.218C37.0568 25.1444 35.8119 26.0642 33.5943 30.0995C32.6565 31.8058 31.0404 34.0719 30.003 35.1359C27.5546 37.6457 23.4717 39.5725 19.1904 40.2378C17.0953 40.5637 15.771 40.9812 15.771 41.3156C15.771 41.6164 17.3759 43.3721 19.3376 45.2176C24.6425 50.2077 31.703 53.5575 39.4414 54.7557C40.9623 54.9909 41.6016 54.8621 42.6633 54.1061C45.8227 51.8566 49.929 45.0156 52.09 38.4022C53.549 33.9368 53.3273 32.3544 50.8726 29.7233L49.722 28.4897L50.8892 25.2341C51.5311 23.4434 52.8312 19.7928 53.778 17.1218L55.5 12.265L54.2403 11.1737C53.0301 10.125 52.0869 9.89919 50.9085 10.3764ZM53.2729 12.4392C53.461 12.9325 49.0338 25.9394 48.1917 27.3687C47.9457 27.7862 47.4038 27.718 45.9242 27.0832L43.9799 26.2491L46.5437 21.4206C47.9537 18.7644 49.7023 15.5313 50.4286 14.2348C51.6999 11.9678 52.8231 11.2585 53.2729 12.4392ZM12.3238 17.7988C11.786 18.0587 11.105 18.8533 10.8105 19.5639C10.3948 20.5672 10.3961 21.149 10.8168 22.1645C11.1162 22.8872 11.9444 23.7155 12.6672 24.0149C13.6889 24.4378 14.2617 24.4378 15.2835 24.0149C16.0062 23.7155 16.8345 22.8872 17.1339 22.1645C17.5536 21.1504 17.5554 20.5663 17.142 19.5679C16.6352 18.3451 15.0155 17.2295 13.842 17.2955C13.5448 17.3121 12.862 17.5384 12.3238 17.7988ZM15.3041 19.7125C16.0022 20.5533 15.7584 21.7492 14.7609 22.3772C13.2055 23.3568 11.4538 21.1495 12.6466 19.7125C13.3397 18.877 14.611 18.877 15.3041 19.7125ZM20.727 20.6103C20.029 21.4511 20.2727 22.647 21.2702 23.2751C22.8257 24.2546 24.5774 22.0473 23.3846 20.6103C22.6915 19.7749 21.4202 19.7749 20.727 20.6103ZM18.3581 26.9458C17.01 27.6776 15.771 29.7058 15.771 31.1814C15.771 32.7023 17.0311 34.7049 18.4497 35.4384C19.1742 35.8128 20.1906 36.1194 20.7091 36.1194C22.23 36.1194 24.2326 34.8593 24.9661 33.4408C25.3405 32.7162 25.6471 31.6999 25.6471 31.1814C25.6471 29.6604 24.387 27.6578 22.9685 26.9243C21.3308 26.0776 19.9468 26.0839 18.3581 26.9458ZM42.5771 27.542C47.1776 29.361 49.8697 30.7782 50.5381 31.7322C50.9215 32.2799 51.2353 33.39 51.2353 34.1994C51.2353 35.4694 51.0818 35.6705 50.113 35.6705C49.4958 35.6705 48.5867 35.2665 48.0929 34.7727C47.5951 34.2748 46.5967 33.8749 45.8519 33.8749C44.9954 33.8749 44.3063 33.5498 43.9485 32.977C43.6401 32.4832 42.982 32.0761 42.4855 32.0725C41.9894 32.0689 41.0786 31.7712 40.4613 31.4112C39.8441 31.0512 38.6827 30.4451 37.8801 30.0649C37.0774 29.6847 36.4242 29.225 36.4278 29.0432C36.448 28.0749 38.3079 26.7299 39.6591 26.7057C40.082 26.6985 41.3951 27.0747 42.5771 27.542ZM22.8127 29.0149C24.1168 30.2404 24.1415 31.9369 22.8755 33.285C21.65 34.5891 19.9535 34.6138 18.6055 33.3478C17.3014 32.1223 17.2767 30.4258 18.5426 29.0777C19.7681 27.7736 21.4646 27.749 22.8127 29.0149ZM36.7367 31.2756C37.4271 31.5746 38.474 32.1806 39.063 32.6224C39.6519 33.0646 40.5318 33.4259 41.0184 33.4259C41.5046 33.4259 42.503 33.931 43.2365 34.5482C43.9701 35.1655 45.0353 35.6705 45.6032 35.6705C46.1715 35.6705 46.8768 35.9605 47.1713 36.3152C47.4653 36.6694 48.298 37.0895 49.0217 37.2485C50.3819 37.5474 50.5283 37.7934 50.065 39.0006C49.6883 39.9819 47.9923 39.8894 46.6236 38.8129C45.996 38.3191 44.9568 37.9151 44.3139 37.9151C43.6715 37.9151 42.8002 37.5111 42.3773 37.0173C41.9544 36.5235 41.1639 36.1194 40.6203 36.1194C40.0771 36.1194 39.032 35.6144 38.2985 34.9971C37.5649 34.3799 36.5899 33.8717 36.132 33.8681C35.6737 33.8641 35.0357 33.6944 34.7148 33.4906C34.2479 33.1947 34.2398 32.8801 34.6744 31.9261C34.9738 31.2698 35.2777 30.7324 35.3495 30.7324C35.4218 30.7324 36.0463 30.9771 36.7367 31.2756ZM37.2597 36.6182C37.8527 37.0846 38.7842 37.4662 39.3301 37.4662C39.8755 37.4662 40.6773 37.8585 41.1118 38.3384C41.5459 38.8183 42.5367 39.3377 43.3137 39.4926C44.4311 39.7157 46.5545 40.5933 48.9202 41.8099C49.0051 41.8539 48.3025 43.3582 47.3589 45.1539C46.4153 46.9495 44.6183 49.5195 43.3654 50.8658L41.0871 53.3133L38.1723 52.7634L35.2571 52.213L38.3362 49.0787C41.1895 46.1742 41.8889 44.7498 40.6629 44.3418C40.403 44.2551 39.4939 45.1161 38.6428 46.2546C37.7912 47.393 36.1527 49.0168 35.0016 49.8625L32.9092 51.401L30.6368 50.5049C28.0143 49.4715 26.545 48.6195 26.545 48.132C26.545 47.9448 26.8255 47.7912 27.169 47.7912C28.0075 47.7912 33.2482 43.9041 33.5817 43.0341C33.7276 42.6547 33.6257 42.1228 33.3555 41.8525C32.999 41.4961 32.3149 41.8669 30.8712 43.1975C28.8376 45.0721 25.7441 46.8934 24.5944 46.8934C23.9022 46.8934 18.9134 42.9573 18.9134 42.4114C18.9134 42.2287 20.0119 41.8588 21.3542 41.589C24.7053 40.9161 28.6966 38.8125 31.07 36.4682C33.0448 34.5177 33.0619 34.5114 34.6178 35.1395C35.4779 35.486 36.6667 36.1518 37.2597 36.6182Z" fill="#FF7C00"/>
<rect x="1" y="0.5" width="64" height="64" rx="32" stroke="#3D4857"/>
</svg>
