<svg width="50" height="50" viewBox="0 0 50 50" fill="none" xmlns="http://www.w3.org/2000/svg">
<path d="M16 23C15.4477 23 15 23.4477 15 24V27C15 27.5523 15.4477 28 16 28C16.5523 28 17 27.5523 17 27V25H19C19.5523 25 20 24.5523 20 24C20 23.4477 19.5523 23 19 23H16Z" fill="#FF7C00"/>
<path d="M35 34C35 34.5523 34.5523 35 34 35H31C30.4477 35 30 34.5523 30 34C30 33.4477 30.4477 33 31 33H33V31C33 30.4477 33.4477 30 34 30C34.5523 30 35 30.4477 35 31V34Z" fill="#FF7C00"/>
<path fill-rule="evenodd" clip-rule="evenodd" d="M31.4405 12.1022C31.7132 12.236 31.9103 12.4865 31.9762 12.7831L32.7425 16.2317L33.8039 16.0194C34.3273 15.9147 34.8407 16.2396 34.9701 16.7575L35.7808 20H37C37.5523 20 38 20.4477 38 21V37C38 37.5523 37.5523 38 37 38H13C12.4477 38 12 37.5523 12 37V21C12 20.4477 12.4477 20 13 20H13.7764L30.5742 12.0952C30.8491 11.9658 31.1678 11.9684 31.4405 12.1022ZM30.2949 14.437L30.7809 16.624L21.8532 18.4095L30.2949 14.437ZM33.7193 20L33.2611 18.1676L24.099 20H33.7193ZM14 36V22H36V36H14Z" fill="#FF7C00"/>
<path d="M21.44 35V23.576H25.088C26.56 23.576 27.632 23.8747 28.304 24.472C28.9867 25.0693 29.328 25.8907 29.328 26.936C29.328 27.5547 29.1893 28.136 28.912 28.68C28.6347 29.224 28.1707 29.6613 27.52 29.992C26.88 30.3227 26.0053 30.488 24.896 30.488H23.856V35H21.44ZM20.16 33.288V31.736H26.32V33.288H20.16ZM20.16 30.488V28.504H24.848V30.488H20.16ZM24.656 28.504C25.1147 28.504 25.5093 28.456 25.84 28.36C26.1707 28.2533 26.4267 28.088 26.608 27.864C26.7893 27.64 26.88 27.3573 26.88 27.016C26.88 26.5253 26.7253 26.1627 26.416 25.928C26.1067 25.6827 25.6213 25.56 24.96 25.56H23.856V28.504H24.656Z" fill="#FF7C00"/>
</svg>
