<svg width="50" height="50" viewBox="0 0 50 50" fill="none" xmlns="http://www.w3.org/2000/svg">
<path d="M17.4 24C17.1791 24 17 24.1791 17 24.4V27.6C17 27.8209 17.1791 28 17.4 28H20.6C20.8209 28 21 27.8209 21 27.6V24.4C21 24.1791 20.8209 24 20.6 24H17.4Z" fill="#FF7C00"/>
<path d="M17 30.4C17 30.1791 17.1791 30 17.4 30H20.6C20.8209 30 21 30.1791 21 30.4V33.6C21 33.8209 20.8209 34 20.6 34H17.4C17.1791 34 17 33.8209 17 33.6V30.4Z" fill="#FF7C00"/>
<path d="M23.4 24C23.1791 24 23 24.1791 23 24.4V27.6C23 27.8209 23.1791 28 23.4 28H26.6C26.8209 28 27 27.8209 27 27.6V24.4C27 24.1791 26.8209 24 26.6 24H23.4Z" fill="#FF7C00"/>
<path d="M23 30.4C23 30.1791 23.1791 30 23.4 30H26.6C26.8209 30 27 30.1791 27 30.4V33.6C27 33.8209 26.8209 34 26.6 34H23.4C23.1791 34 23 33.8209 23 33.6V30.4Z" fill="#FF7C00"/>
<path d="M29.4 24C29.1791 24 29 24.1791 29 24.4V27.6C29 27.8209 29.1791 28 29.4 28H32.6C32.8209 28 33 27.8209 33 27.6V24.4C33 24.1791 32.8209 24 32.6 24H29.4Z" fill="#FF7C00"/>
<path d="M29 30.4C29 30.1791 29.1791 30 29.4 30H32.6C32.8209 30 33 30.1791 33 30.4V33.6C33 33.8209 32.8209 34 32.6 34H29.4C29.1791 34 29 33.8209 29 33.6V30.4Z" fill="#FF7C00"/>
<path d="M18 20C17.4477 20 17 20.4477 17 21C17 21.5523 17.4477 22 18 22H32C32.5523 22 33 21.5523 33 21C33 20.4477 32.5523 20 32 20H18Z" fill="#FF7C00"/>
<path fill-rule="evenodd" clip-rule="evenodd" d="M30 15H20V13C20 12.4477 19.5523 12 19 12C18.4477 12 18 12.4477 18 13V15H15C13.3431 15 12 16.3431 12 18V35C12 36.6569 13.3431 38 15 38H35C36.6569 38 38 36.6569 38 35V18C38 16.3431 36.6569 15 35 15H32V13C32 12.4477 31.5523 12 31 12C30.4477 12 30 12.4477 30 13V15ZM19 18C18.4477 18 18 17.5523 18 17H15C14.4477 17 14 17.4477 14 18V35C14 35.5523 14.4477 36 15 36H35C35.5523 36 36 35.5523 36 35V18C36 17.4477 35.5523 17 35 17H32C32 17.5523 31.5523 18 31 18C30.4477 18 30 17.5523 30 17H20C20 17.5523 19.5523 18 19 18Z" fill="#FF7C00"/>
</svg>
