<svg width="66" height="65" viewBox="0 0 66 65" fill="none" xmlns="http://www.w3.org/2000/svg">
<path fill-rule="evenodd" clip-rule="evenodd" d="M26.6111 10.537C20.0617 12.7058 15.1067 17.0092 12.2739 22.9886C10.6294 26.4603 10.5 27.1592 10.5 32.567C10.5 37.9747 10.6294 38.6736 12.2739 42.1453C14.57 46.992 18.575 50.997 23.4217 53.2931C26.8933 54.9375 27.5922 55.067 33 55.067C38.4078 55.067 39.1067 54.9375 42.5783 53.2931C44.7839 52.2481 47.48 50.3625 49.1378 48.7047C50.7956 47.047 52.6811 44.3508 53.7261 42.1453C55.3706 38.6736 55.5 37.9747 55.5 32.567C55.5 27.1592 55.3706 26.4603 53.7261 22.9886C51.4194 18.1203 47.4217 14.1292 42.5783 11.8614C39.3883 10.3675 38.0922 10.0853 33.8333 9.95417C30.7611 9.86029 27.9767 10.0847 26.6111 10.537ZM41.2167 13.9525C45.4372 15.8764 49.7478 20.197 51.6933 24.4531C53.0028 27.317 53.2439 28.5792 53.2439 32.567C53.2439 36.5547 53.0028 37.817 51.6933 40.6808C49.73 44.9758 45.4411 49.2486 41.0556 51.2781C38.2378 52.582 36.9917 52.8208 33 52.8208C29.0083 52.8208 27.7622 52.582 24.9444 51.2781C20.5589 49.2486 16.27 44.9758 14.3067 40.6808C12.9994 37.8214 12.7556 36.5481 12.7511 32.567C12.7472 28.5681 12.9828 27.3342 14.2894 24.5114C16.9339 18.7992 22.5422 14.062 28.4144 12.5797C31.8544 11.7114 37.6694 12.3347 41.2167 13.9525ZM29.9444 18.6197C27.1183 19.3514 23.7661 21.3231 22.2161 23.1653C19.9183 25.8958 18.9639 28.6214 18.9233 32.567C18.8922 35.5586 19.1672 36.6947 20.5261 39.1908C22.125 42.127 25.9839 45.6264 26.9583 45.0242C27.955 44.4081 27.3844 43.0358 25.4128 41.3047C18.8644 35.5553 20.6044 25.1347 28.6767 21.7631C29.8128 21.2886 32.125 20.9003 33.8156 20.9003C36.1211 20.9003 36.8889 20.7003 36.8889 20.0997C36.8889 19.6592 36.6778 19.1686 36.4194 19.0092C35.4872 18.4331 31.575 18.1981 29.9444 18.6197ZM38.3683 25.2958C35.4922 28.0553 34.7028 28.5342 33.435 28.2903C32.2689 28.0658 31.5433 28.3831 30.2406 29.6853C29.3139 30.612 28.5556 31.9086 28.5556 32.567C28.5556 34.1136 31.4533 37.0114 33 37.0114C33.6583 37.0114 34.955 36.2531 35.8817 35.3264C37.1917 34.0164 37.5 33.3053 37.2661 32.132C37.0111 30.8508 37.4756 30.1042 40.3378 27.1964C42.61 24.8881 43.6 23.4836 43.3722 22.8908C43.1867 22.407 42.7556 22.0114 42.4139 22.0114C42.0722 22.0114 40.2517 23.4897 38.3683 25.2958ZM44.6544 31.8725C44.6394 35.8136 43.2978 38.9247 40.5872 41.3047C38.6317 43.0214 38.045 44.4081 39.0183 45.0097C39.9011 45.5553 43.5244 42.5403 44.9878 40.0425C46.82 36.9164 47.6106 33.527 47.1467 30.7831C46.88 29.2047 46.5256 28.6781 45.7289 28.6781C44.8078 28.6781 44.665 29.1014 44.6544 31.8725ZM34.3889 32.567C34.3889 33.5853 34.0544 34.0031 33.1367 34.1336C32.385 34.2403 31.75 33.9625 31.5494 33.4392C30.9961 31.9975 31.7711 30.8064 33.1367 31.0003C34.0544 31.1308 34.3889 31.5486 34.3889 32.567Z" fill="#FF7C00"/>
<rect x="1" y="0.5" width="64" height="64" rx="32" stroke="#3D4857"/>
</svg>
