<svg width="50" height="50" viewBox="0 0 50 50" fill="none" xmlns="http://www.w3.org/2000/svg">
<path fill-rule="evenodd" clip-rule="evenodd" d="M12 16C12 13.7909 13.7909 12 16 12H32C35.3137 12 38 14.6863 38 18V34.7732C38 36.4989 35.9611 37.4145 34.6713 36.268L33.1644 34.9285C32.7855 34.5917 32.2145 34.5917 31.8356 34.9285L29.9931 36.5663C28.8564 37.5767 27.1436 37.5767 26.0069 36.5663L24.1644 34.9285C23.7855 34.5917 23.2145 34.5917 22.8356 34.9285L21.3287 36.268C20.0389 37.4145 18 36.4989 18 34.7732V23H15C13.3431 23 12 21.6569 12 20V16ZM19.4649 14H32C34.2091 14 36 15.7909 36 18V34.7732L34.4931 33.4337C33.3564 32.4233 31.6436 32.4233 30.5069 33.4337L28.6644 35.0715C28.2855 35.4083 27.7145 35.4083 27.3356 35.0715L25.4931 33.4337C24.3564 32.4233 22.6436 32.4233 21.5069 33.4337L20 34.7732V16C20 15.2714 19.8052 14.5883 19.4649 14ZM16 14C14.8954 14 14 14.8954 14 16V20C14 20.5523 14.4477 21 15 21H18V16C18 14.8954 17.1046 14 16 14Z" fill="#FF7C00"/>
</svg>
