<svg width="66" height="65" viewBox="0 0 66 65" fill="none" xmlns="http://www.w3.org/2000/svg">
<path fill-rule="evenodd" clip-rule="evenodd" d="M36.8258 17.5969L32.599 23.6837L28.8274 24.7414C26.5817 25.3712 24.6496 26.2152 24.0515 26.8269C23.4993 27.3919 21.8222 29.7832 20.3247 32.1414C18.8273 34.4991 17.2959 36.4213 16.9215 36.4127C16.2858 36.3981 11.1388 37.8075 10.5126 38.1678C10.2417 38.3235 14.4353 52.8017 14.8796 53.2464C14.9976 53.3639 16.475 53.0458 18.163 52.5389C21.1329 51.6473 21.2277 51.5733 21.0966 50.2511C20.9618 48.8934 20.9827 48.8803 24.4998 48.1107C28.8727 47.1532 31.3403 46.0882 32.7583 44.5459L33.8478 43.3611L35.6837 44.7115C36.6933 45.4539 37.6698 46.0615 37.8536 46.0615C38.0374 46.0615 41.398 41.4159 45.3212 35.7384C49.2444 30.0604 53.1395 24.4664 53.9772 23.3066L55.5 21.1984L48.8633 16.5796C45.2132 14.039 41.9629 11.8591 41.6398 11.7352C41.2759 11.5955 39.4459 13.8243 36.8258 17.5969ZM47.3445 17.5878C50.3108 19.647 52.7448 21.4848 52.7534 21.6717C52.762 21.8591 51.4257 23.9523 49.7844 26.3228C46.9874 30.3626 45.985 31.5043 46.5672 29.9869C46.9892 28.887 45.9791 26.1467 44.5534 24.5232C42.9004 22.64 40.6647 21.8387 37.8246 22.1119L35.6914 22.3165L38.5842 18.0806C40.1751 15.7506 41.5831 13.8443 41.7138 13.8443C41.844 13.8443 44.3778 15.5291 47.3445 17.5878ZM44.3238 19.9383C43.8719 21.1159 44.5049 22.0887 45.6202 21.9304C46.3698 21.8237 46.643 21.4825 46.643 20.6507C46.643 19.819 46.3698 19.4778 45.6202 19.3711C45.0063 19.284 44.4876 19.5109 44.3238 19.9383ZM41.2759 24.2527C42.3173 24.7255 43.5374 25.6748 43.988 26.3627C44.4386 27.0502 44.8075 28.4164 44.8075 29.3984C44.8075 30.7229 44.533 31.4063 43.7462 32.0434C42.3794 33.1501 40.971 33.1655 40.971 32.0738C40.971 31.6182 40.48 30.7842 39.8797 30.2202C39.0543 29.4447 38.3664 29.2319 37.0536 29.3448C35.5172 29.4773 35.2699 29.3544 34.8874 28.2672C34.2929 26.5764 35.1573 24.8508 37.001 24.0499C37.8119 23.6973 38.6795 23.4055 38.929 23.401C39.1786 23.3969 40.2345 23.7799 41.2759 24.2527ZM28.6468 29.7537C27.3649 31.7729 26.505 33.5698 26.7278 33.765C26.9497 33.9592 27.8645 34.5563 28.7611 35.0913L30.391 36.0642L33.5134 33.5757C35.2309 32.2072 37.094 31.0873 37.653 31.0873C38.2248 31.0873 38.8955 31.5084 39.185 32.0493C39.7694 33.141 39.7739 33.1333 34.3351 39.9815C32.3241 42.514 30.4396 44.4034 29.4626 44.8667C27.6349 45.7343 20.7104 47.2794 20.3347 46.9032C20.1968 46.7653 19.562 44.893 18.9244 42.7422C18.0468 39.7832 17.8903 38.6901 18.281 38.2495C18.565 37.9291 20.2685 35.4207 22.0658 32.6755C25.1573 27.955 25.4573 27.6428 27.594 26.9263C28.8369 26.5097 30.1047 26.1522 30.4114 26.1322C30.7182 26.1122 29.9241 27.7422 28.6468 29.7537ZM33.1717 27.9613C33.2307 28.7377 33.4666 29.7242 33.6962 30.1525C34.0275 30.7715 33.7275 31.2289 32.2415 32.371C31.2119 33.1624 30.2535 33.8067 30.1115 33.8031C29.9699 33.799 29.5733 33.6184 29.2307 33.4015C28.7384 33.0893 29.0456 32.3302 30.6964 29.7782C31.8449 28.0026 32.8477 26.5497 32.9244 26.5497C33.0011 26.5497 33.1122 27.1849 33.1717 27.9613ZM41.2459 38.6697C39.4077 41.3428 37.7256 43.5839 37.5087 43.6502C37.2914 43.7169 36.6235 43.3943 36.0236 42.9337L34.9332 42.096L37.7098 38.5354C40.0598 35.5215 40.7849 34.8944 42.4303 34.4515C43.4993 34.1638 44.4223 33.9015 44.4813 33.8693C44.5407 33.8366 43.0846 35.997 41.2459 38.6697ZM17.5709 44.2573C18.5328 47.5081 19.2393 50.2343 19.1413 50.316C19.0438 50.3976 18.2905 50.6917 17.4683 50.9689C16.3262 51.3546 15.93 51.3437 15.7921 50.9231C15.6056 50.3559 12.9511 41.4512 12.5563 40.0686C12.3934 39.4987 12.7315 39.1793 13.8341 38.8616C14.6586 38.6238 15.4432 38.411 15.5779 38.3883C15.7122 38.3661 16.6089 41.007 17.5709 44.2573Z" fill="#FF7C00"/>
<rect x="1" y="0.5" width="64" height="64" rx="32" stroke="#3D4857"/>
</svg>
