<svg width="50" height="50" viewBox="0 0 50 50" fill="none" xmlns="http://www.w3.org/2000/svg">
<path fill-rule="evenodd" clip-rule="evenodd" d="M25 16C21.6863 16 19 18.6863 19 22C19 25.3137 21.6863 28 25 28C28.3137 28 31 25.3137 31 22C31 18.6863 28.3137 16 25 16ZM21 22C21 19.7908 22.7909 18 25 18C27.2091 18 29 19.7908 29 22C29 24.2091 27.2091 26 25 26C22.7909 26 21 24.2091 21 22Z" fill="#FF7C00"/>
<path fill-rule="evenodd" clip-rule="evenodd" d="M26.434 12.6419C25.5399 12.1553 24.4601 12.1553 23.566 12.6419L23.454 12.7029C23.2758 12.7999 23.0722 12.8403 22.8705 12.8189L22.7437 12.8055C21.7314 12.6981 20.7338 13.1113 20.0939 13.903L20.0138 14.0022C19.8863 14.16 19.7137 14.2753 19.5191 14.3327L19.3969 14.3688C18.4206 14.657 17.657 15.4206 17.3688 16.3969L17.3327 16.5191C17.2753 16.7137 17.16 16.8863 17.0022 17.0138L16.9031 17.0939C16.1113 17.7338 15.6981 18.7314 15.8055 19.7437L15.8189 19.8705C15.8403 20.0722 15.7999 20.2757 15.7029 20.454L15.6419 20.5659C15.1553 21.4601 15.1553 22.5399 15.6419 23.434L15.7029 23.546C15.7999 23.7242 15.8403 23.9277 15.8189 24.1295L15.8055 24.2563C15.6981 25.2685 16.1113 26.2662 16.9031 26.906L17.0022 26.9862C17.16 27.1137 17.2753 27.2862 17.3327 27.4809L17.3688 27.6031C17.3808 27.6435 17.3935 27.6835 17.407 27.7232L13.5359 34.4282C13.3515 34.7476 13.3579 35.1425 13.5524 35.4558C13.747 35.7691 14.0982 35.9499 14.4663 35.9261L17.3991 35.737L18.7017 38.3714C18.8651 38.702 19.1973 38.9158 19.5659 38.9277C19.9345 38.9395 20.2797 38.7476 20.4641 38.4282L24.3735 31.6569C24.787 31.7452 25.2148 31.745 25.6282 31.6565L29.5378 38.4282C29.7222 38.7476 30.0674 38.9395 30.436 38.9277C30.8046 38.9158 31.1368 38.702 31.3002 38.3714L32.6028 35.737L35.5356 35.9261C35.9036 35.9499 36.2549 35.7691 36.4495 35.4558C36.644 35.1425 36.6504 34.7476 36.466 34.4282L32.5937 27.7211C32.607 27.6822 32.6195 27.6428 32.6312 27.6031L32.6673 27.4809C32.7247 27.2862 32.84 27.1137 32.9978 26.9862L33.0969 26.906C33.8887 26.2662 34.3019 25.2685 34.1945 24.2563L34.1811 24.1295C34.1597 23.9277 34.2001 23.7242 34.2971 23.546L34.3581 23.434C34.8447 22.5399 34.8447 21.4601 34.3581 20.5659L34.2971 20.454C34.2001 20.2757 34.1597 20.0722 34.1811 19.8705L34.1945 19.7437C34.3019 18.7314 33.8887 17.7338 33.0969 17.0939L32.9978 17.0138C32.84 16.8863 32.7247 16.7137 32.6673 16.5191L32.6312 16.3969C32.343 15.4206 31.5794 14.657 30.6031 14.3688L30.4809 14.3327C30.2863 14.2753 30.1137 14.16 29.9862 14.0022L29.9061 13.903C29.2662 13.1113 28.2686 12.6981 27.2563 12.8055L27.1295 12.8189C26.9278 12.8403 26.7242 12.7999 26.546 12.7029L26.434 12.6419ZM31.2328 29.3641C31.036 29.4756 30.825 29.5657 30.6031 29.6312L30.4809 29.6672C30.2863 29.7247 30.1137 29.84 29.9862 29.9978L29.9061 30.0969C29.3557 30.7779 28.5407 31.1788 27.6794 31.2094L30.3356 35.81L31.1055 34.2529C31.2844 33.891 31.6634 33.6722 32.0663 33.6982L33.7997 33.81L31.2328 29.3641ZM16.2022 33.81L18.7686 29.3649C18.965 29.476 19.1755 29.5658 19.3969 29.6312L19.5191 29.6672C19.7137 29.7247 19.8863 29.84 20.0138 29.9978L20.0939 30.0969C20.6447 30.7784 21.4604 31.1794 22.3224 31.2095L19.6663 35.81L18.8964 34.2529C18.7175 33.891 18.3385 33.6722 17.9356 33.6982L16.2022 33.81ZM24.522 14.3986C24.82 14.2364 25.18 14.2364 25.478 14.3986L25.59 14.4596C26.1247 14.7505 26.7352 14.872 27.3405 14.8078L27.4673 14.7943C27.8047 14.7585 28.1373 14.8963 28.3505 15.1602L28.4307 15.2593C28.8133 15.7328 29.3309 16.0786 29.9147 16.2509L30.037 16.287C30.3624 16.3831 30.6169 16.6376 30.713 16.963L30.7491 17.0853C30.9214 17.6691 31.2672 18.1867 31.7407 18.5693L31.8398 18.6494C32.1037 18.8627 32.2415 19.1953 32.2057 19.5327L32.1922 19.6595C32.128 20.2648 32.2494 20.8753 32.5404 21.41L32.6014 21.522C32.7636 21.82 32.7636 22.18 32.6014 22.478L32.5404 22.59C32.2494 23.1246 32.128 23.7352 32.1922 24.3405L32.2057 24.4673C32.2415 24.8047 32.1037 25.1372 31.8398 25.3505L31.7407 25.4307C31.2672 25.8133 30.9214 26.3309 30.7491 26.9147L30.713 27.037C30.6169 27.3624 30.3624 27.6169 30.037 27.713L29.9147 27.7491C29.3309 27.9214 28.8133 28.2672 28.4307 28.7407L28.3505 28.8398C28.1373 29.1037 27.8047 29.2415 27.4673 29.2057L27.3405 29.1922C26.7352 29.128 26.1247 29.2494 25.59 29.5404L25.478 29.6014C25.18 29.7635 24.82 29.7635 24.522 29.6014L24.41 29.5404C23.8753 29.2494 23.2648 29.128 22.6595 29.1922L22.5327 29.2057C22.1953 29.2415 21.8627 29.1037 21.6495 28.8398L21.5693 28.7407C21.1867 28.2672 20.6691 27.9214 20.0853 27.7491L19.963 27.713C19.6376 27.6169 19.3831 27.3624 19.287 27.037L19.2509 26.9147C19.0786 26.3309 18.7328 25.8133 18.2593 25.4307L18.1602 25.3505C17.8963 25.1372 17.7585 24.8047 17.7943 24.4673L17.8078 24.3405C17.872 23.7352 17.7506 23.1246 17.4596 22.59L17.3986 22.478C17.2364 22.18 17.2364 21.82 17.3986 21.522L17.4596 21.41C17.7506 20.8753 17.872 20.2648 17.8078 19.6595L17.7943 19.5327C17.7585 19.1953 17.8963 18.8627 18.1602 18.6494L18.2593 18.5693C18.7328 18.1867 19.0786 17.6691 19.2509 17.0853L19.287 16.963C19.3831 16.6376 19.6376 16.3831 19.963 16.287L20.0853 16.2509C20.6691 16.0786 21.1867 15.7328 21.5693 15.2593L21.6495 15.1602C21.8627 14.8963 22.1953 14.7585 22.5327 14.7943L22.6595 14.8078C23.2648 14.872 23.8753 14.7505 24.41 14.4596L24.522 14.3986Z" fill="#FF7C00"/>
</svg>
