<svg width="66" height="65" viewBox="0 0 66 65" fill="none" xmlns="http://www.w3.org/2000/svg">
<path fill-rule="evenodd" clip-rule="evenodd" d="M30.7434 11.2635C29.4631 12.2779 28.7055 12.5053 26.6088 12.5053H24.0417L23.0025 14.5726C22.2381 16.0932 21.4906 16.8425 20.1749 17.4067C19.1913 17.8279 18.1889 18.5267 17.9468 18.9594C17.7047 19.3917 17.6064 20.6303 17.7281 21.7117C17.9105 23.3293 17.7368 23.9568 16.7464 25.2556C16.0844 26.1234 15.5427 27.1391 15.5427 27.5121C15.5427 27.8856 16.1303 28.979 16.8479 29.9419C17.9449 31.4129 18.1039 31.9637 17.843 33.3911C17.5103 35.2099 17.9675 37.0833 18.7438 37.0833C19.0043 37.0833 19.2179 37.3112 19.2179 37.5896C19.2179 37.868 18.0809 40.6653 16.6912 43.8053C15.3015 46.9458 14.1645 49.7155 14.1645 49.9604C14.1645 50.208 15.6755 50.406 17.5673 50.406H20.9701L22.8932 52.703C23.9507 53.9663 25.017 55 25.2618 55C25.6698 55 26.5711 53.2033 29.6193 46.3109C30.4664 44.3947 30.8505 43.9381 31.2648 44.3524C31.9631 45.0507 34.0383 45.0494 34.7379 44.3497C35.037 44.0506 35.3508 43.8953 35.4353 44.0051C35.5198 44.1145 36.5999 46.5438 37.8352 49.404C39.0705 52.2638 40.2838 54.729 40.5314 54.8819C40.7791 55.0349 41.9248 54.0904 43.0779 52.7829L45.1742 50.4055L48.5048 50.406C50.5437 50.406 51.8355 50.2172 51.8355 49.919C51.8355 49.6516 50.6783 46.7772 49.2642 43.5319C46.6989 37.6452 46.6948 37.63 47.6058 36.719C48.3413 35.9835 48.4718 35.3955 48.2793 33.6851C48.079 31.9105 48.2375 31.2788 49.2486 29.8197C49.9134 28.8605 50.4573 27.796 50.4573 27.4547C50.4573 27.1129 49.9515 26.1707 49.3336 25.3603C48.4961 24.2623 48.1745 23.1979 48.0702 21.1825C47.9315 18.4982 47.9159 18.4702 45.9772 17.5394C44.5512 16.8545 43.745 16.0478 42.9911 14.5533L41.9583 12.5053H39.4316C37.3818 12.5053 36.5934 12.2669 35.2538 11.242C34.3456 10.5469 33.3119 9.98824 32.9568 10.0002C32.6017 10.0121 31.6053 10.5804 30.7434 11.2635ZM34.9979 12.7208C36.5539 13.8987 37.0308 14.0278 38.9704 13.7981L41.1746 13.5371L42.0966 15.6219C42.8363 17.2937 43.4248 17.8863 45.068 18.6131L47.117 19.5195L46.8951 21.8289C46.7049 23.8075 46.8455 24.3643 47.8759 25.7159C48.5379 26.5832 49.0791 27.4501 49.0791 27.6426C49.0791 27.8351 48.5453 28.6266 47.8934 29.4017C46.8753 30.6117 46.7292 31.1667 46.8597 33.3291L47.0118 35.8475L44.9886 36.5803C43.2575 37.2069 42.8335 37.6282 42.0571 39.492L41.1493 41.6714L38.7793 41.3925C36.6761 41.1453 36.2494 41.2492 34.9832 42.3145C34.1986 42.9747 33.306 43.5149 33 43.5149C32.694 43.5149 31.8014 42.9747 31.0168 42.3145C29.7507 41.2492 29.3239 41.1453 27.2207 41.3925L24.8507 41.6714L23.9429 39.492C23.1665 37.6282 22.7425 37.2069 21.0114 36.5803L18.9882 35.8475L19.1403 33.3291C19.2708 31.1667 19.1247 30.6117 18.1066 29.4017C17.4548 28.6266 16.9209 27.8351 16.9209 27.6426C16.9209 27.4501 17.4621 26.5832 18.1241 25.7159C19.1545 24.3643 19.2951 23.8075 19.1049 21.8289L18.883 19.5195L20.932 18.6131C22.5753 17.8863 23.1637 17.2937 23.9034 15.6219L24.8254 13.5371L27.042 13.7994C28.9899 14.0301 29.4718 13.9019 31.0145 12.741C31.9801 12.0142 32.8737 11.4115 33 11.4009C33.1263 11.3908 34.0254 11.9848 34.9979 12.7208ZM31.3921 16.2664C27.3925 17.1522 24.4657 19.3012 22.7912 22.5809C21.6932 24.7318 21.3872 29.2854 22.3189 29.6098C22.7131 29.7467 22.8941 29.2569 22.8959 28.0483C22.9005 24.8173 23.7881 22.7247 26.1085 20.4732C27.8565 18.7775 28.8484 18.2148 30.8992 17.7558C32.3215 17.4374 33.4148 16.9656 33.3289 16.7075C33.1355 16.1277 32.5856 16.0023 31.3921 16.2664ZM37.1346 17.9189C37.1346 18.6163 39.6292 20.1939 40.0564 19.7671C40.6261 19.1974 40.3367 18.7238 38.9952 18.0301C37.3459 17.177 37.1346 17.1646 37.1346 17.9189ZM42.3649 23.3545C42.539 23.9568 42.8023 25.5 42.9502 26.7831C43.1578 28.5858 42.9984 29.6162 42.2478 31.3123C41.2334 33.6056 41.3303 34.7702 42.4573 33.8349C43.2658 33.1637 44.4938 29.1173 44.4593 27.2374C44.4235 25.2969 43.4702 22.7252 42.6925 22.4702C42.2083 22.3117 42.1269 22.5308 42.3649 23.3545ZM34.9561 27.0798L31.637 30.3986L29.5641 28.3639C27.942 26.772 27.37 26.4505 26.935 26.8855C26.4999 27.3206 26.8702 27.9403 28.6384 29.7356C29.8811 30.9976 31.1174 32.0299 31.3847 32.0299C31.9245 32.0299 39.4316 24.628 39.4316 24.0956C39.4316 23.1078 37.9211 24.1149 34.9561 27.0798ZM23.1477 32.7355C22.5592 33.1802 22.4085 33.5666 22.7066 33.8647C23.2579 34.416 25.3404 33.1044 24.9412 32.4581C24.5828 31.8783 24.2029 31.9371 23.1477 32.7355ZM25.7415 35.3376C25.1185 35.9605 25 37.0833 25.5577 37.0833C26.1301 37.0833 27.0278 36.0455 27.0278 35.3835C27.0278 34.6365 26.4627 34.6163 25.7415 35.3376ZM38.5128 35.4042C38.5128 35.7442 38.9263 36.3965 39.4316 36.8536C40.3206 37.658 40.3504 37.6562 40.3504 36.787C40.3504 35.8756 39.5502 34.7863 38.8804 34.7863C38.6782 34.7863 38.5128 35.0642 38.5128 35.4042ZM28.9081 37.0038C28.231 38.269 28.2764 38.9209 29.0413 38.9209C29.7971 38.9209 30.3869 37.0429 29.8118 36.4677C29.5821 36.238 29.1948 36.4682 28.9081 37.0038ZM35.4776 37.3507C35.631 37.7504 35.7564 38.2672 35.7564 38.4992C35.7564 38.7312 36.0665 38.9209 36.4455 38.9209C36.8245 38.9209 37.1346 38.7312 37.1346 38.4992C37.1346 37.5312 36.5314 36.6239 35.8878 36.6239C35.4482 36.6239 35.2998 36.8872 35.4776 37.3507ZM32.1657 38.2461C32.2457 38.8856 32.5176 39.4088 32.7703 39.4088C33.023 39.4088 33.2949 38.8856 33.3749 38.2461C33.4787 37.4173 33.305 37.0833 32.7703 37.0833C32.2356 37.0833 32.0619 37.4173 32.1657 38.2461ZM22.7011 40.2481C23.2276 41.3309 23.9512 42.4027 24.309 42.6297C24.6674 42.8562 25.9427 42.915 27.1426 42.7597C28.7074 42.5576 29.3248 42.6361 29.3248 43.0381C29.3248 43.6128 25.7065 52.2068 25.2122 52.8064C25.0611 52.9892 24.2195 52.222 23.3411 51.1011C21.7548 49.0756 21.7258 49.0622 18.8242 49.0452C16.6774 49.0324 15.9645 48.8757 16.1321 48.4535C17.9697 43.8352 20.8534 38.0081 21.2425 38.1262C21.5186 38.2102 22.1751 39.1649 22.7011 40.2481ZM47.7445 43.4318C48.984 46.2755 49.9979 48.6979 49.9979 48.8151C49.9979 48.9322 48.7736 49.0278 47.2773 49.0278C44.6146 49.0278 44.5181 49.0728 42.7628 51.1263L40.9693 53.2244L38.8225 48.3502C37.6413 45.6691 36.6752 43.2513 36.6752 42.9765C36.6752 42.6439 37.436 42.5787 38.9585 42.7808C40.8875 43.0367 41.3859 42.9389 42.1743 42.1505C42.687 41.6378 43.1069 40.9538 43.1069 40.6313C43.1069 39.7589 44.5007 37.9309 45.0308 38.1073C45.284 38.1919 46.5051 40.5876 47.7445 43.4318Z" fill="#FF7C00"/>
<rect x="1" y="0.5" width="64" height="64" rx="32" stroke="#3D4857"/>
</svg>
