<svg width="24" height="25" viewBox="0 0 24 25" fill="none" xmlns="http://www.w3.org/2000/svg">
<rect y="0.5" width="24" height="24" rx="12" fill="#5181B8"/>
<path fill-rule="evenodd" clip-rule="evenodd" d="M19.6329 8.7673C19.7442 8.39647 19.6329 8.1239 19.1035 8.1239H17.3531C16.908 8.1239 16.703 8.35933 16.5917 8.61902C16.5917 8.61902 15.7015 10.7886 14.4404 12.198C14.0325 12.6059 13.847 12.7356 13.6245 12.7356C13.5132 12.7356 13.3522 12.6059 13.3522 12.2351V8.7673C13.3522 8.3222 13.223 8.1239 12.8521 8.1239H10.1014C9.82336 8.1239 9.65607 8.33045 9.65607 8.52625C9.65607 8.94822 10.2865 9.04549 10.3515 10.2323V12.81C10.3515 13.3751 10.2495 13.4777 10.0269 13.4777C9.43352 13.4777 7.99018 11.2981 7.13398 8.80444C6.96619 8.3197 6.7979 8.1239 6.35055 8.1239H4.60014C4.10002 8.1239 4 8.35933 4 8.61902C4 9.08263 4.59351 11.3822 6.76314 14.4234C8.20973 16.5001 10.2475 17.6261 12.1019 17.6261C13.2147 17.6261 13.3522 17.3761 13.3522 16.9453V15.3756C13.3522 14.8755 13.4576 14.7757 13.8098 14.7757C14.0696 14.7757 14.5146 14.9055 15.5532 15.9068C16.74 17.0935 16.9355 17.6261 17.6032 17.6261H19.3536C19.8537 17.6261 20.1038 17.3761 19.9595 16.8826C19.8017 16.3907 19.2351 15.6773 18.4831 14.8313C18.0752 14.3491 17.4631 13.8299 17.2779 13.5703C17.0182 13.2365 17.0923 13.0882 17.2779 12.7916C17.2779 12.7916 19.4103 9.78742 19.6329 8.76743V8.7673Z" fill="white"/>
</svg>
