<svg width="24" height="25" viewBox="0 0 24 25" fill="none" xmlns="http://www.w3.org/2000/svg">
<rect y="0.5" width="24" height="24" rx="12" fill="#419FD9"/>
<path fill-rule="evenodd" clip-rule="evenodd" d="M14.6678 18.4422C15.5065 18.8091 15.8211 18.0403 15.8211 18.0403L18.0403 6.8918C18.0228 6.14041 17.0093 6.59474 17.0093 6.59474L4.58525 11.47C4.58525 11.47 3.99114 11.6797 4.04356 12.0466C4.09598 12.4136 4.56778 12.5883 4.56778 12.5883L7.69564 13.6368C7.69564 13.6368 8.63924 16.7297 8.83145 17.3238C9.00619 17.9005 9.16346 17.9179 9.16346 17.9179C9.3382 17.9878 9.49547 17.8655 9.49547 17.8655L11.5225 16.0307L14.6678 18.4422ZM15.2094 8.86634C15.2094 8.86634 15.6463 8.60423 15.6288 8.86634C15.6288 8.86634 15.6987 8.90129 15.4715 9.14593C15.2619 9.35561 10.3167 13.794 9.65269 14.3881C9.60026 14.4231 9.56532 14.4755 9.56532 14.5454L9.3731 16.188C9.33815 16.3627 9.11099 16.3802 9.05857 16.2229L8.23729 13.5319C8.20234 13.4271 8.23729 13.3048 8.34213 13.2349L15.2094 8.86634Z" fill="white"/>
</svg>
