<svg width="24" height="25" viewBox="0 0 24 25" fill="none" xmlns="http://www.w3.org/2000/svg">
<rect y="0.5" width="24" height="24" rx="12" fill="#2B2C34"/>
<path fill-rule="evenodd" clip-rule="evenodd" d="M12.3425 10.3512C12.3339 15.3019 12.3295 15.7164 12.2829 15.8889C12.2207 16.1187 12.0648 16.4621 11.9397 16.6449C11.6575 17.057 11.1827 17.3873 10.6652 17.5318C10.4379 17.5952 10.021 17.6143 9.77139 17.5728C9.19121 17.4761 8.65038 17.1411 8.32068 16.6741C8.05589 16.2989 7.93068 15.9442 7.90486 15.4958C7.87758 15.0219 7.99099 14.5789 8.23954 14.1885C8.46216 13.8389 8.85451 13.5003 9.22927 13.3344C9.61254 13.1648 10.1562 13.1107 10.5772 13.2003C10.69 13.2243 10.7857 13.244 10.7897 13.244C10.7937 13.244 10.797 12.6883 10.797 12.0092V10.7744L10.6578 10.7517C10.4462 10.7173 9.69845 10.7271 9.4344 10.7678C8.30465 10.9417 7.33599 11.4696 6.56589 12.3313C6.01867 12.9435 5.63315 13.7571 5.48986 14.6021C5.43697 14.9139 5.43025 15.0448 5.44312 15.5111C5.45862 16.0715 5.49853 16.3304 5.64063 16.7918C5.73618 17.1021 5.99734 17.6344 6.21732 17.9674C6.49096 18.3816 7.04471 18.9353 7.46663 19.2167C7.99696 19.5704 8.51954 19.7935 9.14842 19.9346C9.39463 19.9898 9.52612 19.9989 10.0937 19.9999C10.6186 20.0009 10.8022 19.9904 10.9941 19.9488C11.6703 19.8022 12.1961 19.5849 12.7237 19.234C12.9792 19.0641 13.1629 18.9094 13.4356 18.6345C13.6707 18.3974 13.8697 18.1637 13.9878 17.9855C14.33 17.4697 14.5587 16.9389 14.7008 16.331C14.7646 16.0583 14.7653 16.0272 14.7746 12.9864C14.7799 11.2982 14.7909 9.91694 14.7991 9.91694C14.8074 9.91694 14.8828 9.96741 14.9667 10.0291C15.5588 10.4641 16.3848 10.8408 17.1441 11.022C17.5127 11.11 18.0568 11.183 18.3442 11.183H18.5625V9.96111V8.73923H18.3584C18.2462 8.73923 18.0243 8.71391 17.8653 8.68294C17.0779 8.52957 16.3905 8.153 15.838 7.57221C15.2409 6.9447 14.8979 6.20065 14.805 5.33123L14.7696 5H13.5607H12.3518L12.3425 10.3512Z" fill="white"/>
</svg>
