<svg width="24" height="25" viewBox="0 0 24 25" fill="none" xmlns="http://www.w3.org/2000/svg">
<rect y="0.5" width="24" height="24" rx="12" fill="#675DA9"/>
<path d="M17.8767 6.59227C17.4798 6.22734 15.8728 5.05891 12.2907 5.04291C12.2907 5.04291 8.06836 4.78681 6.01001 6.6755C4.86399 7.82152 4.46064 9.49573 4.41903 11.5765C4.37741 13.6541 4.32299 17.5499 8.07797 18.6063H8.08117L8.07797 20.2165C8.07797 20.2165 8.05556 20.8695 8.48452 21.0007C9.00311 21.1608 9.31042 20.6646 9.8066 20.13C10.0787 19.8355 10.4532 19.4066 10.7381 19.0768C13.3055 19.2913 15.2806 18.7983 15.5047 18.7247C16.0233 18.555 18.9587 18.1805 19.4357 14.2847C19.9287 10.2768 19.1956 7.73829 17.8767 6.59227ZM18.3121 14.003C17.9088 17.2554 15.5303 17.4602 15.0917 17.6011C14.9061 17.6619 13.171 18.0941 10.9878 17.95C10.9878 17.95 9.36164 19.9123 8.85585 20.4213C8.77582 20.5014 8.68299 20.5334 8.62217 20.5174C8.53573 20.495 8.51012 20.3925 8.51333 20.2421C8.51333 20.0244 8.52613 17.5627 8.52613 17.5627C8.52293 17.5627 8.52293 17.5627 8.52613 17.5627C5.34737 16.6824 5.53304 13.3659 5.56825 11.6309C5.60346 9.89588 5.92998 8.47136 6.89994 7.51421C8.63817 5.93923 12.2267 6.17292 12.2267 6.17292C15.255 6.18572 16.7051 7.09806 17.0412 7.40217C18.1585 8.36252 18.7283 10.6514 18.3121 14.003Z" fill="white"/>
<path d="M13.7665 11.6917C13.6609 11.6917 13.5713 11.6085 13.5649 11.4997C13.5297 10.8114 13.2063 10.4753 12.5469 10.4401C12.4349 10.4337 12.3484 10.3376 12.3548 10.2256C12.3612 10.1136 12.4573 10.0271 12.5693 10.0335C13.44 10.0816 13.9266 10.5809 13.9714 11.4773C13.9778 11.5893 13.8914 11.6853 13.7793 11.6885C13.7729 11.6917 13.7697 11.6917 13.7665 11.6917Z" fill="white"/>
<path d="M14.8036 12.0375H14.8004C14.6884 12.0343 14.5987 11.9415 14.6019 11.8295C14.6179 11.138 14.4195 10.5778 13.9969 10.1168C13.5775 9.65588 12.9981 9.40618 12.2331 9.35176C12.121 9.34216 12.0378 9.24613 12.0474 9.13408C12.057 9.02204 12.153 8.93881 12.2651 8.94842C13.1294 9.01244 13.8112 9.31335 14.2978 9.84474C14.7876 10.3793 15.0245 11.0484 15.0085 11.8391C15.0053 11.9511 14.9124 12.0375 14.8036 12.0375Z" fill="white"/>
<path d="M15.8665 12.4536C15.7545 12.4536 15.6648 12.364 15.6648 12.2519C15.6552 11.0131 15.2999 10.0687 14.5764 9.36126C13.8626 8.6634 12.9566 8.30807 11.8906 8.29847C11.7786 8.29847 11.689 8.20564 11.689 8.0936C11.689 7.98155 11.7818 7.89192 11.8906 7.89192C13.0655 7.90153 14.0642 8.29527 14.8549 9.06995C15.6488 9.84464 16.0554 10.9138 16.0682 12.2455C16.0714 12.3608 15.9817 12.4536 15.8665 12.4536C15.8697 12.4536 15.8697 12.4536 15.8665 12.4536Z" fill="white"/>
<path d="M12.5948 14.1982C12.5948 14.1982 12.8797 14.2238 13.0334 14.0349L13.3311 13.6604C13.4752 13.4747 13.8241 13.3563 14.1634 13.5452C14.3523 13.6508 14.6948 13.8621 14.9061 14.0189C15.1334 14.1854 15.5943 14.5695 15.5975 14.5727C15.8184 14.7584 15.8696 15.0305 15.7192 15.3218C15.7192 15.3218 15.7192 15.325 15.7192 15.3282C15.5655 15.6003 15.3574 15.8564 15.0982 16.0933C15.095 16.0933 15.095 16.0965 15.0918 16.0965C14.8773 16.2758 14.666 16.3782 14.4611 16.4006C14.4355 16.407 14.4067 16.407 14.3683 16.407C14.2787 16.407 14.189 16.3942 14.0994 16.3654L14.093 16.3558C13.7729 16.2662 13.2415 16.0421 12.358 15.5523C11.7817 15.2354 11.3048 14.9121 10.8982 14.5888C10.6837 14.4191 10.4661 14.2302 10.242 14.0061C10.2356 13.9997 10.226 13.9901 10.2196 13.9837C10.2132 13.9773 10.2036 13.9677 10.1972 13.9613C10.1908 13.9549 10.1812 13.9453 10.1748 13.9389C10.1683 13.9325 10.1587 13.9229 10.1523 13.9165C9.93146 13.6924 9.73939 13.4747 9.56973 13.2603C9.24641 12.8569 8.92309 12.3767 8.60618 11.8005C8.1164 10.9138 7.89232 10.3824 7.80268 10.0655L7.79308 10.0591C7.76427 9.96946 7.75146 9.87983 7.75146 9.7902C7.75146 9.75178 7.75146 9.72297 7.75787 9.69736C7.78348 9.48929 7.88591 9.28121 8.06198 9.06673C8.06198 9.06353 8.06518 9.06353 8.06518 9.06033C8.30207 8.79783 8.55816 8.59296 8.83026 8.4393C8.83026 8.4393 8.83346 8.4393 8.83666 8.4393C9.12477 8.28885 9.39687 8.34006 9.58574 8.56095C9.58574 8.56095 9.97308 9.02512 10.1395 9.2524C10.2964 9.46688 10.5077 9.8062 10.6133 9.99507C10.8022 10.3344 10.6837 10.6833 10.4981 10.8274L10.1235 11.1251C9.93466 11.2787 9.96027 11.5636 9.96027 11.5636C9.96027 11.5636 10.5141 13.67 12.5948 14.1982Z" fill="white"/>
</svg>
