<svg width="24" height="25" viewBox="0 0 24 25" fill="none" xmlns="http://www.w3.org/2000/svg">
<rect y="0.5" width="24" height="24" rx="12" fill="#0DC143"/>
<path d="M17.3753 7.10574C16.0889 5.78142 14.3105 5.0625 12.4943 5.0625C8.6348 5.0625 5.5321 8.20304 5.56994 12.0247C5.56994 13.2355 5.91048 14.4084 6.47805 15.4679L5.49426 19.0625L9.16453 18.1166C10.1862 18.6841 11.3213 18.949 12.4564 18.949C16.278 18.949 19.3807 15.8084 19.3807 11.9868C19.3807 10.1328 18.6618 8.39223 17.3753 7.10574ZM12.4943 17.776C11.4726 17.776 10.451 17.5111 9.58075 16.9814L9.35372 16.8679L7.15913 17.4355L7.7267 15.2787L7.57534 15.0517C5.91048 12.3652 6.70507 8.80845 9.4294 7.14358C12.1537 5.47872 15.6726 6.27331 17.3375 8.99764C19.0024 11.722 18.2078 15.2409 15.4835 16.9057C14.6132 17.4733 13.5537 17.776 12.4943 17.776ZM15.824 13.576L15.4078 13.3868C15.4078 13.3868 14.8024 13.122 14.424 12.9328C14.3862 12.9328 14.3483 12.8949 14.3105 12.8949C14.197 12.8949 14.1213 12.9328 14.0456 12.9706C14.0456 12.9706 14.0078 13.0084 13.478 13.6139C13.4402 13.6895 13.3645 13.7274 13.2889 13.7274H13.251C13.2132 13.7274 13.1375 13.6895 13.0997 13.6517L12.9105 13.576C12.4943 13.3868 12.1159 13.1598 11.8132 12.8571C11.7375 12.7814 11.624 12.7057 11.5483 12.6301C11.2835 12.3652 11.0186 12.0625 10.8294 11.722L10.7916 11.6463C10.7537 11.6084 10.7537 11.5706 10.7159 11.4949C10.7159 11.4193 10.7159 11.3436 10.7537 11.3057C10.7537 11.3057 10.9051 11.1166 11.0186 11.003C11.0943 10.9274 11.1321 10.8139 11.2078 10.7382C11.2835 10.6247 11.3213 10.4733 11.2835 10.3598C11.2456 10.1706 10.7916 9.14899 10.678 8.92196C10.6024 8.80845 10.5267 8.77061 10.4132 8.73277H10.2997C10.224 8.73277 10.1105 8.73277 9.99697 8.73277C9.92129 8.73277 9.84561 8.77061 9.76994 8.77061L9.7321 8.80845C9.65642 8.84628 9.58075 8.92196 9.50507 8.9598C9.4294 9.03547 9.39156 9.11115 9.31588 9.18682C9.05102 9.52736 8.89967 9.94358 8.89967 10.3598C8.89967 10.6625 8.97534 10.9652 9.08886 11.2301L9.1267 11.3436C9.46724 12.0625 9.92129 12.7057 10.5267 13.2733L10.678 13.4247C10.7916 13.5382 10.9051 13.6139 10.9807 13.7274C11.7753 14.4084 12.6835 14.9003 13.7051 15.1652C13.8186 15.203 13.9699 15.203 14.0835 15.2409C14.197 15.2409 14.3483 15.2409 14.4618 15.2409C14.651 15.2409 14.878 15.1652 15.0294 15.0895C15.1429 15.0139 15.2186 15.0139 15.2943 14.9382L15.3699 14.8625C15.4456 14.7868 15.5213 14.749 15.597 14.6733C15.6726 14.5976 15.7483 14.522 15.7862 14.4463C15.8618 14.2949 15.8997 14.1057 15.9375 13.9166C15.9375 13.8409 15.9375 13.7274 15.9375 13.6517C15.9375 13.6517 15.8997 13.6139 15.824 13.576Z" fill="white"/>
</svg>
