<svg width="65" height="65" viewBox="0 0 65 65" fill="none" xmlns="http://www.w3.org/2000/svg">
<path fill-rule="evenodd" clip-rule="evenodd" d="M35.3211 22.4297V26.7253H33.9647H32.6082V22.6558V18.5863H24.2608H15.9134L15.7827 22.5427L15.652 26.4992L13.7303 26.638L11.8087 26.7773V30.5944C11.8087 34.1104 11.7372 34.412 10.9043 34.412C10.0669 34.412 10 34.7136 10 38.4815C10 42.5315 10.0054 42.551 11.1417 42.551C11.9077 42.551 12.4123 42.8856 12.6764 43.5683C13.2131 44.9578 14.943 46.4409 16.4397 46.795C17.8373 47.1255 20.2935 46.2574 21.2611 45.0903C21.8494 44.3804 21.9882 44.413 23.1539 45.5298C25.5078 47.7848 29.8233 46.8605 30.956 43.8595C31.4407 42.5754 31.513 42.551 34.869 42.551C38.2249 42.551 38.2973 42.5754 38.782 43.8595C39.879 46.7656 44.1949 47.7766 46.4701 45.6605C47.1054 45.0695 47.8022 44.1277 48.0184 43.5683C48.3688 42.6618 48.7233 42.551 51.2712 42.551C52.8443 42.551 54.364 42.3181 54.648 42.0342C55.0088 41.6733 55.087 39.8624 54.9066 36.043C54.6688 31.0018 54.4924 30.1572 52.6802 25.3688C51.4249 22.0526 50.29 19.8004 49.5476 19.1515C48.4556 18.197 47.979 18.1342 41.8522 18.1342H35.3211V22.4297ZM44.3644 23.2332C44.3644 27.9212 44.9789 29.4382 46.8771 29.4382C47.4848 29.4382 48.3887 29.8452 48.8861 30.3426C49.4888 30.9453 50.3931 31.2469 51.599 31.2469C52.5938 31.2469 53.4032 31.3993 53.3977 31.586C53.3923 31.7728 52.7312 32.2303 51.9282 32.6034C49.5051 33.7293 49.8329 36.6729 52.3817 36.6729C53.3417 36.6729 53.466 36.8307 53.2341 37.7562C53.0496 38.4896 53.1798 38.9233 53.6369 39.0983C54.0082 39.2407 54.312 39.7706 54.312 40.2761C54.312 41.1054 54.0258 41.1945 51.3616 41.1945C48.7201 41.1945 48.3706 41.0882 48.0184 40.1771C47.8022 39.6178 47.1054 38.6759 46.4701 38.085C44.1949 35.9688 39.879 36.9799 38.782 39.8859C38.4917 40.6546 37.9559 41.1945 37.4829 41.1945C36.7328 41.1945 36.6776 40.4385 36.6776 30.1165V19.0385H40.521H44.3644V23.2332ZM49.1931 20.0658C49.4929 20.3715 50.5487 22.7064 51.5389 25.2557L53.3394 29.8904H51.6203C50.6436 29.8904 49.6579 29.5974 49.3382 29.2122C49.0285 28.8391 48.4099 28.5339 47.9632 28.5339C45.8633 28.5339 45.7209 28.2111 45.7209 23.4552V18.9254L47.1846 19.218C47.9894 19.379 48.8933 19.7606 49.1931 20.0658ZM31.6102 23.2337L31.4778 26.4992L24.1301 26.6036L16.7825 26.7076V23.3377V19.9681H24.2626H31.7427L31.6102 23.2337ZM39.0289 21.3897C38.7006 21.718 38.4863 23.3123 38.4863 25.4289C38.4863 28.5687 38.5817 28.9553 39.4232 29.2226C39.9386 29.3862 40.8543 29.3957 41.4579 29.2443C42.5024 28.982 42.5558 28.7984 42.5558 25.4506C42.5558 21.7383 42.1619 20.8471 40.521 20.8471C39.9988 20.8471 39.3273 21.0913 39.0289 21.3897ZM23.791 22.2036C23.9447 22.4523 24.1599 22.6558 24.2698 22.6558C24.3797 22.6558 24.4692 22.4523 24.4692 22.2036C24.4692 21.9549 24.2535 21.7515 23.9904 21.7515C23.7272 21.7515 23.6372 21.9549 23.791 22.2036ZM41.5592 25.2557C41.4407 27.9619 41.3227 28.3078 40.521 28.3078C39.7193 28.3078 39.6013 27.9619 39.4829 25.2557C39.3508 22.2384 39.3626 22.2036 40.521 22.2036C41.6795 22.2036 41.6912 22.2384 41.5592 25.2557ZM23.791 24.4644C23.9447 24.7131 24.1599 24.9166 24.2698 24.9166C24.3797 24.9166 24.4692 24.7131 24.4692 24.4644C24.4692 24.2158 24.2535 24.0123 23.9904 24.0123C23.7272 24.0123 23.6372 24.2158 23.791 24.4644ZM35.3211 31.0204V34.3609L24.0171 34.3709L12.713 34.3808V31.0375V27.6942L24.0171 27.687L35.3211 27.6802V31.0204ZM19.9476 29.8904C19.9476 30.2218 20.0832 30.3575 20.2492 30.192C20.4147 30.0261 20.4147 29.7548 20.2492 29.5888C20.0832 29.4233 19.9476 29.559 19.9476 29.8904ZM27.6344 29.8904C27.6344 30.1391 27.8378 30.3426 28.0865 30.3426C28.3352 30.3426 28.5387 30.1391 28.5387 29.8904C28.5387 29.6417 28.3352 29.4382 28.0865 29.4382C27.8378 29.4382 27.6344 29.6417 27.6344 29.8904ZM19.9476 32.1512C19.9476 32.4827 20.0832 32.6183 20.2492 32.4528C20.4147 32.2869 20.4147 32.0156 20.2492 31.8496C20.0832 31.6841 19.9476 31.8198 19.9476 32.1512ZM27.6344 32.1512C27.6344 32.3999 27.8378 32.6034 28.0865 32.6034C28.3352 32.6034 28.5387 32.3999 28.5387 32.1512C28.5387 31.9025 28.3352 31.6991 28.0865 31.6991C27.8378 31.6991 27.6344 31.9025 27.6344 32.1512ZM53.4077 34.6381C53.4077 35.8983 52.474 36.1443 51.6153 35.1102C50.9316 34.2859 51.3757 33.5077 52.53 33.5077C53.1649 33.5077 53.4077 33.8206 53.4077 34.6381ZM35.3211 38.4815V41.1945L33.3995 41.1845C31.6794 41.1759 31.4063 41.0218 30.7995 39.715C29.939 37.8634 27.4146 36.5585 25.4518 36.9509C24.6695 37.1074 23.5446 37.721 22.9513 38.3142C21.9579 39.3076 21.8236 39.3334 21.2494 38.6411C20.2921 37.4867 17.8306 36.6218 16.4397 36.9505C14.943 37.3045 13.2131 38.7876 12.6764 40.1771C12.4602 40.7364 11.9728 41.1945 11.5939 41.1945C11.0526 41.1945 10.9043 40.6112 10.9043 38.4815V35.7685H23.1127H35.3211V38.4815ZM20.194 39.1394C20.9604 39.9054 21.3041 40.7518 21.3041 41.8727C21.3041 45.3114 17.3716 46.9573 14.6826 44.6445C13.7335 43.8279 13.4364 43.1673 13.4364 41.8727C13.4364 40.5782 13.7335 39.9176 14.6826 39.101C16.3701 37.6495 18.7209 37.6658 20.194 39.1394ZM29.2373 39.1394C30.0037 39.9054 30.3474 40.7518 30.3474 41.8727C30.3474 45.3114 26.4149 46.9573 23.7259 44.6445C22.7768 43.8279 22.4797 43.1673 22.4797 41.8727C22.4797 40.5782 22.7768 39.9176 23.7259 39.101C25.4133 37.6495 27.7641 37.6658 29.2373 39.1394ZM46.0121 39.101C46.9612 39.9176 47.2583 40.5782 47.2583 41.8727C47.2583 43.1673 46.9612 43.8279 46.0121 44.6445C43.3231 46.9573 39.3906 45.3114 39.3906 41.8727C39.3906 38.434 43.3231 36.7882 46.0121 39.101ZM48.4339 38.4815C48.4339 38.7302 48.6374 38.9337 48.8861 38.9337C49.1347 38.9337 49.3382 38.7302 49.3382 38.4815C49.3382 38.2328 49.1347 38.0293 48.8861 38.0293C48.6374 38.0293 48.4339 38.2328 48.4339 38.4815ZM50.6947 38.4815C50.6947 38.7302 50.8982 38.9337 51.1469 38.9337C51.3956 38.9337 51.599 38.7302 51.599 38.4815C51.599 38.2328 51.3956 38.0293 51.1469 38.0293C50.8982 38.0293 50.6947 38.2328 50.6947 38.4815ZM16.0518 40.9422C15.5702 42.1969 16.0843 43.2292 17.1917 43.2292C18.6178 43.2292 19.4258 41.974 18.6228 41.0064C17.8803 40.112 16.3845 40.0745 16.0518 40.9422ZM25.095 40.9422C24.6135 42.1969 25.1276 43.2292 26.2349 43.2292C27.661 43.2292 28.4691 41.974 27.666 41.0064C26.9236 40.112 25.4278 40.0745 25.095 40.9422ZM42.09 40.9847C41.2689 41.9745 42.062 43.2292 43.5094 43.2292C44.4092 43.2292 44.5905 43.0018 44.5905 41.8727C44.5905 40.8418 44.364 40.4837 43.6464 40.3815C43.1273 40.3073 42.4269 40.5786 42.09 40.9847ZM17.7546 41.8727C17.7546 42.1092 17.5358 42.3751 17.2685 42.4642C17.0013 42.5532 16.7825 42.2874 16.7825 41.8727C16.7825 41.4581 17.0013 41.1922 17.2685 41.2813C17.5358 41.3704 17.7546 41.6363 17.7546 41.8727ZM26.7979 41.8727C26.7979 42.1092 26.579 42.3751 26.3118 42.4642C26.0446 42.5532 25.8257 42.2874 25.8257 41.8727C25.8257 41.4581 26.0446 41.1922 26.3118 41.2813C26.579 41.3704 26.7979 41.6363 26.7979 41.8727ZM43.9123 41.8727C43.9123 42.2458 43.721 42.551 43.4868 42.551C42.9166 42.551 42.5083 41.8447 42.8696 41.4834C43.3787 40.9743 43.9123 41.1737 43.9123 41.8727Z" fill="#FF7C00"/>
<rect x="0.5" y="0.5" width="64" height="64" rx="32" stroke="#3D4857"/>
</svg>
