<svg width="65" height="65" viewBox="0 0 65 65" fill="none" xmlns="http://www.w3.org/2000/svg">
<path fill-rule="evenodd" clip-rule="evenodd" d="M25.2146 10.4592C22.8831 11.3109 19.9475 13.2924 17.9899 15.3356L16.5519 16.8363L17.7 17.766C18.7071 18.5815 18.8676 19.2468 19.0051 23.1681C19.1106 26.1776 19.406 27.9202 19.9083 28.4964C20.3194 28.967 20.922 30.184 21.248 31.2007C21.574 32.2175 22.2907 33.4563 22.8409 33.954C23.3905 34.4517 23.8403 35.4812 23.8403 36.2417C23.8403 37.45 23.5454 37.7072 21.5068 38.2783C18.7535 39.049 13.442 42.356 12.9662 43.5953C12.7834 44.0721 12.6336 45.5947 12.6336 46.9782V49.4941L22.9066 49.3566C30.5725 49.2537 33.2335 49.0571 33.392 48.5818C33.5565 48.0867 31.3819 47.945 23.6279 47.945H13.6524V46.2574C13.6524 44.2127 15.3237 42.4614 19.001 40.6525C22.6972 38.8345 23.8403 38.5528 23.8403 39.4606C23.8403 39.8747 24.5458 40.8069 25.4077 41.5323C27.5354 43.3228 30.333 43.3228 32.4608 41.5323C33.3227 40.8069 34.0282 39.8747 34.0282 39.4606C34.0282 38.5299 35.1723 38.8422 39.2495 40.8874C41.4608 41.9963 42.1785 42.1767 42.1785 41.6219C42.1785 40.8843 37.9989 38.643 35.4127 37.994C34.3282 37.722 34.0282 37.3445 34.0282 36.2529C34.0282 35.4858 34.478 34.4517 35.0276 33.954C35.5778 33.4563 36.2945 32.2175 36.6205 31.2007C36.9465 30.184 37.5654 28.9487 37.9964 28.4561C38.5959 27.77 38.7895 26.2015 38.8231 21.7616C38.8623 16.6473 38.7472 15.8282 37.8486 14.8191C37.2883 14.19 36.1422 13.3531 35.3017 12.9598C34.4612 12.5666 33.0858 11.8132 32.2453 11.2859C30.0936 9.93554 27.487 9.62939 25.2146 10.4592ZM31.8979 12.5421C32.7302 13.2425 33.7282 13.8156 34.1158 13.8156C35.4861 13.8156 37.0616 15.4049 37.542 17.2729C37.8176 18.3446 37.8492 20.047 37.6148 21.2018C37.2786 22.8609 37.191 22.9745 37.1431 21.8131C37.0662 19.9416 35.8029 17.5489 34.5325 16.8689C33.8117 16.4833 33.2182 16.4879 32.4781 16.8837C31.9055 17.1898 29.843 17.7446 27.8946 18.1159C25.9461 18.4867 23.7603 19.1785 23.0365 19.6528C22.3131 20.1265 21.4049 21.2421 21.0177 22.1315L20.3143 23.7488L20.2944 21.7881C20.2837 20.7097 19.8904 19.0175 19.4208 18.0278L18.5665 16.2286L20.3122 14.7529C23.1552 12.349 25.4525 11.3155 28.0036 11.291C29.8211 11.2737 30.7421 11.5697 31.8979 12.5421ZM35.2884 19.3935C35.7158 20.2202 36.0658 21.9496 36.0658 23.2363C36.0658 24.9988 36.2461 25.5393 36.7962 25.4267C37.1981 25.3442 37.542 25.4486 37.5603 25.659C37.6831 27.0634 37.5068 27.5693 36.8951 27.5693C36.4779 27.5693 36.0693 28.3603 35.8824 29.5304C35.4657 32.136 33.8509 34.0854 31.1491 35.2433C28.9882 36.1699 28.8802 36.1699 26.7194 35.2433C24.0176 34.0854 22.4028 32.136 21.9861 29.5304C21.7991 28.3603 21.3906 27.5693 20.9734 27.5693C20.5888 27.5693 20.2745 27.2254 20.2745 26.8052C20.2745 25.5948 20.4829 25.2734 21.166 25.4303C21.5501 25.5184 21.8027 25.0488 21.8027 24.247C21.8027 23.516 22.0386 22.4768 22.3274 21.9379C23.0344 20.616 25.4556 19.4251 27.5079 19.3904C28.4325 19.3746 29.9912 19.0578 30.9718 18.6869C33.7282 17.6442 34.4444 17.7614 35.2884 19.3935ZM24.9146 25.7196C24.4607 26.2667 24.4511 26.553 24.8789 26.8174C25.7093 27.3309 26.7403 26.1903 26.0602 25.5103C25.6914 25.1415 25.341 25.2057 24.9146 25.7196ZM31.7237 25.5515C31.2102 26.3819 32.3507 27.4129 33.0308 26.7328C33.3996 26.364 33.3354 26.0136 32.8214 25.5872C32.2743 25.1333 31.9881 25.1237 31.7237 25.5515ZM28.9342 36.8372C29.6347 36.8372 30.8378 36.6737 31.6086 36.4735C32.9416 36.1276 33.0094 36.1974 33.0094 37.9156C33.0094 39.2588 32.6661 39.9908 31.6671 40.7763C30.929 41.357 29.6993 41.8323 28.9342 41.8323C28.1691 41.8323 26.9394 41.357 26.2013 40.7763C25.2024 39.9908 24.8591 39.2588 24.8591 37.9156C24.8591 36.1974 24.9268 36.1276 26.2599 36.4735C27.0306 36.6737 28.2338 36.8372 28.9342 36.8372ZM46.0932 38.0292C44.9756 40.3729 45.0097 41.4706 46.2348 42.5791C47.1298 43.3895 47.1614 43.6244 46.5348 44.823C46.1503 45.5596 45.1381 46.8249 44.2859 47.6348C42.858 48.9924 42.6171 49.0581 41.2086 48.4748C39.927 47.944 39.3101 47.9832 37.378 48.7214C36.0265 49.2374 34.942 50.0208 34.7525 50.6168C34.2803 52.1048 36.0836 54.2279 38.2954 54.7883C39.8343 55.1784 40.5851 55.0638 42.4582 54.1541C43.7148 53.5433 45.7646 52.1022 47.0132 50.9515C49.7277 48.4493 52.3664 43.4456 52.3664 40.8008C52.3664 38.1891 50.7531 36.229 48.6035 36.229C47.2144 36.229 46.815 36.5152 46.0932 38.0292ZM50.0369 38.0475C51.8723 39.8829 51.5784 42.4125 49.0227 46.7734C47.5261 49.327 43.5014 52.6916 40.9269 53.5413C39.5337 54.0007 38.846 53.9814 37.7356 53.4511C36.9455 53.0731 36.2497 52.28 36.1605 51.6539C36.0357 50.7803 36.4081 50.3626 37.8512 49.7595C39.5164 49.0637 39.8246 49.0667 40.9269 49.7891C42.0659 50.5353 42.2778 50.5139 43.9527 49.4788C45.756 48.3643 48.2912 44.7246 48.2912 43.2505C48.2912 42.819 47.8083 42.1451 47.2179 41.7534C46.1925 41.0723 46.1798 40.9572 46.9373 39.1442C47.7874 37.1102 48.7568 36.7674 50.0369 38.0475ZM15.8596 46.2472C16.0466 46.4337 16.3522 46.4337 16.5391 46.2472C16.7256 46.0603 16.5728 45.9075 16.1994 45.9075C15.826 45.9075 15.6732 46.0603 15.8596 46.2472ZM18.4066 46.2472C18.5935 46.4337 18.8992 46.4337 19.0861 46.2472C19.2725 46.0603 19.1197 45.9075 18.7463 45.9075C18.373 45.9075 18.2201 46.0603 18.4066 46.2472ZM20.9536 46.2472C21.1405 46.4337 21.4461 46.4337 21.6331 46.2472C21.8195 46.0603 21.6667 45.9075 21.2933 45.9075C20.9199 45.9075 20.7671 46.0603 20.9536 46.2472ZM23.5005 46.2472C23.6875 46.4337 23.9931 46.4337 24.1801 46.2472C24.3665 46.0603 24.2137 45.9075 23.8403 45.9075C23.4669 45.9075 23.3141 46.0603 23.5005 46.2472ZM26.0475 46.2472C26.2344 46.4337 26.5401 46.4337 26.727 46.2472C26.9135 46.0603 26.7607 45.9075 26.3873 45.9075C26.0139 45.9075 25.8611 46.0603 26.0475 46.2472ZM28.5945 46.2472C28.7814 46.4337 29.0871 46.4337 29.274 46.2472C29.4604 46.0603 29.3076 45.9075 28.9342 45.9075C28.5609 45.9075 28.408 46.0603 28.5945 46.2472ZM31.1414 46.2472C31.3284 46.4337 31.634 46.4337 31.821 46.2472C32.0074 46.0603 31.8546 45.9075 31.4812 45.9075C31.1078 45.9075 30.955 46.0603 31.1414 46.2472ZM33.6884 46.2472C33.8754 46.4337 34.181 46.4337 34.368 46.2472C34.5544 46.0603 34.4016 45.9075 34.0282 45.9075C33.6548 45.9075 33.502 46.0603 33.6884 46.2472ZM36.2354 46.2472C36.4223 46.4337 36.728 46.4337 36.9149 46.2472C37.1014 46.0603 36.9485 45.9075 36.5752 45.9075C36.2018 45.9075 36.049 46.0603 36.2354 46.2472Z" fill="#FF7C00"/>
<rect x="0.5" y="0.5" width="64" height="64" rx="32" stroke="#3D4857"/>
</svg>
