<svg width="65" height="66" viewBox="0 0 65 66" fill="none" xmlns="http://www.w3.org/2000/svg">
<path fill-rule="evenodd" clip-rule="evenodd" d="M26.6505 11.0875C22.6786 12.0525 19.7606 13.7519 16.5185 16.9879C12.923 20.5768 11.177 23.9018 10.3476 28.7393C9.89871 31.3557 9.89871 32.7917 10.3476 35.4081C10.6618 37.2415 11.4659 39.8975 12.134 41.3094C12.8021 42.7218 14.5156 45.1378 15.9421 46.6781C17.7634 48.6457 19.5357 49.9669 21.8966 51.1177C23.7457 52.0191 26.1583 52.9498 27.2579 53.1864C29.0424 53.5699 29.2574 53.5228 29.2574 52.7493C29.2574 52.0906 28.571 51.6903 26.3941 51.0796C21.1006 49.5942 16.2498 45.6097 13.8518 40.7777C11.5323 36.103 11.3031 29.9838 13.2557 24.8545C14.5297 21.5084 17.4199 17.8743 20.4791 15.7717C21.732 14.9107 24.1362 13.7802 25.8219 13.2598C30.8976 11.6921 36.1449 12.1716 40.9844 14.6454C43.8421 16.1063 47.6286 20.0278 49.1591 23.1114C49.8587 24.5219 50.684 26.8969 50.9921 28.3888C51.3041 29.9 51.8545 31.2179 52.2342 31.3637C52.6097 31.5077 53.0209 31.5209 53.1484 31.3934C53.6062 30.9361 52.2149 25.3081 51.0039 22.718C49.3901 19.2661 44.442 14.3043 41.0197 12.7065C36.2531 10.4811 31.3972 9.93438 26.6505 11.0875ZM30.9926 15.44C30.8143 15.6179 30.6689 18.7979 30.6689 22.5072C30.6689 28.6923 30.5885 29.3312 29.6983 30.2214C29.121 30.7987 28.787 31.6517 28.8749 32.3249C28.9869 33.1878 28.2991 34.1867 25.9824 36.5245C23.589 38.9395 23.0649 39.7135 23.5175 40.1661C23.9701 40.6187 24.744 40.0946 27.1591 37.7012C29.4969 35.3845 30.4958 34.6967 31.3586 34.8087C32.7005 34.9832 34.4328 33.4419 34.4328 32.0737C34.4328 31.5562 34.015 30.7149 33.5045 30.2044C32.6784 29.3783 32.5617 28.5154 32.4459 22.3623C32.3241 15.9077 32.0122 14.4205 30.9926 15.44ZM48.2149 33.6028C47.5453 34.4821 45.7246 38.9711 45.7246 39.7431C45.7246 40.1129 46.1362 40.9391 46.6397 41.579L47.5552 42.743L46.1348 44.4659C45.3533 45.4139 43.7636 46.7464 42.601 47.4276L40.488 48.666L38.8902 47.1176L37.2925 45.5687L34.0983 47.1726C30.9686 48.7436 30.9051 48.8118 30.9597 50.5616C31.0604 53.8037 34.4413 56.0178 38.3384 55.3949C41.2229 54.9338 45.7909 52.5767 48.4713 50.1663C51.6301 47.3265 54.5326 42.9161 54.9132 40.3769C55.2529 38.1105 54.4328 35.6066 52.8233 33.9971C51.7205 32.8942 48.9356 32.6557 48.2149 33.6028ZM52.2771 36.1364C54.4178 38.8577 52.8167 43.2285 47.8888 48.1169C43.9692 52.0045 38.7425 54.3095 35.6227 53.5266C34.0814 53.1394 32.5509 51.6244 32.5509 50.4853C32.5509 49.8784 33.2604 49.3124 34.8501 48.6518L37.1499 47.6958L38.1577 49.0593C38.7124 49.8092 39.5936 50.4228 40.1163 50.4228C40.6386 50.4228 41.715 50.0873 42.5083 49.677C44.4811 48.657 48.0003 45.3495 48.8392 43.7263C49.4706 42.5058 49.4475 42.2767 48.5682 41.0417C48.0394 40.2993 47.6065 39.5832 47.6065 39.4505C47.6065 39.3178 48.0224 38.239 48.5305 37.0529C49.6136 34.5264 50.7856 34.2398 52.2771 36.1364Z" fill="#FF7C00"/>
<rect x="0.5" y="1" width="64" height="64" rx="32" stroke="#3D4857"/>
</svg>
