<svg width="65" height="65" viewBox="0 0 65 65" fill="none" xmlns="http://www.w3.org/2000/svg">
<path fill-rule="evenodd" clip-rule="evenodd" d="M36.3258 17.597L32.099 23.6838L28.3274 24.7415C26.0817 25.3714 24.1496 26.2154 23.5515 26.827C22.9993 27.392 21.3222 29.7833 19.8247 32.1415C18.3273 34.4993 16.7959 36.4214 16.4215 36.4128C15.7858 36.3983 10.6388 37.8077 10.0126 38.1679C9.74167 38.3236 13.9353 52.8018 14.3796 53.2465C14.4976 53.364 15.975 53.0459 17.663 52.5391C20.6329 51.6474 20.7277 51.5735 20.5966 50.2512C20.4618 48.8935 20.4827 48.8804 23.9998 48.1108C28.3727 47.1534 30.8403 46.0884 32.2583 44.546L33.3478 43.3613L35.1837 44.7117C36.1933 45.454 37.1698 46.0616 37.3536 46.0616C37.5374 46.0616 40.898 41.416 44.8212 35.7385C48.7444 30.0606 52.6395 24.4666 53.4772 23.3067L55 21.1986L48.3633 16.5797C44.7132 14.0391 41.4629 11.8592 41.1398 11.7353C40.7759 11.5956 38.9459 13.8245 36.3258 17.597ZM46.8445 17.588C49.8108 19.6471 52.2448 21.4849 52.2534 21.6718C52.262 21.8592 50.9257 23.9524 49.2844 26.3229C46.4874 30.3628 45.485 31.5044 46.0672 29.987C46.4892 28.8871 45.4791 26.1468 44.0534 24.5233C42.4004 22.6402 40.1647 21.8388 37.3246 22.112L35.1914 22.3166L38.0842 18.0808C39.6751 15.7507 41.0831 13.8444 41.2138 13.8444C41.344 13.8444 43.8778 15.5292 46.8445 17.588ZM43.8238 19.9385C43.3719 21.116 44.0049 22.0888 45.1202 21.9305C45.8698 21.8238 46.143 21.4826 46.143 20.6509C46.143 19.8191 45.8698 19.4779 45.1202 19.3713C44.5063 19.2841 43.9876 19.511 43.8238 19.9385ZM40.7759 24.2528C41.8173 24.7257 43.0374 25.6749 43.488 26.3628C43.9386 27.0503 44.3075 28.4166 44.3075 29.3985C44.3075 30.723 44.033 31.4064 43.2462 32.0435C41.8794 33.1502 40.471 33.1657 40.471 32.0739C40.471 31.6183 39.98 30.7843 39.3797 30.2203C38.5543 29.4448 37.8664 29.232 36.5536 29.345C35.0172 29.4775 34.7699 29.3545 34.3874 28.2673C33.7929 26.5766 34.6573 24.8509 36.501 24.05C37.3119 23.6974 38.1795 23.4057 38.429 23.4011C38.6786 23.397 39.7345 23.78 40.7759 24.2528ZM28.1468 29.7538C26.8649 31.7731 26.005 33.57 26.2278 33.7651C26.4497 33.9593 27.3645 34.5564 28.2611 35.0914L29.891 36.0643L33.0134 33.5759C34.7309 32.2073 36.594 31.0874 37.153 31.0874C37.7248 31.0874 38.3955 31.5085 38.685 32.0494C39.2694 33.1412 39.2739 33.1334 33.8351 39.9816C31.8241 42.5141 29.9396 44.4035 28.9626 44.8668C27.1349 45.7344 20.2104 47.2795 19.8347 46.9033C19.6968 46.7654 19.062 44.8932 18.4244 42.7423C17.5468 39.7833 17.3903 38.6902 17.781 38.2496C18.065 37.9293 19.7685 35.4209 21.5658 32.6756C24.6573 27.9551 24.9573 27.6429 27.094 26.9264C28.3369 26.5099 29.6047 26.1523 29.9114 26.1323C30.2182 26.1124 29.4241 27.7423 28.1468 29.7538ZM32.6717 27.9614C32.7307 28.7378 32.9666 29.7243 33.1962 30.1527C33.5275 30.7716 33.2275 31.229 31.7415 32.3711C30.7119 33.1625 29.7535 33.8068 29.6115 33.8032C29.4699 33.7991 29.0733 33.6185 28.7307 33.4016C28.2384 33.0894 28.5456 32.3303 30.1964 29.7783C31.3449 28.0027 32.3477 26.5498 32.4244 26.5498C32.5011 26.5498 32.6122 27.1851 32.6717 27.9614ZM40.7459 38.6698C38.9077 41.3429 37.2256 43.5841 37.0087 43.6503C36.7914 43.717 36.1235 43.3944 35.5236 42.9338L34.4332 42.0962L37.2098 38.5355C39.5598 35.5216 40.2849 34.8945 41.9303 34.4516C42.9993 34.1639 43.9223 33.9017 43.9813 33.8694C44.0407 33.8368 42.5846 35.9971 40.7459 38.6698ZM17.0709 44.2574C18.0328 47.5082 18.7393 50.2344 18.6413 50.3161C18.5438 50.3978 17.7905 50.6918 16.9683 50.969C15.8262 51.3547 15.43 51.3439 15.2921 50.9232C15.1056 50.356 12.4511 41.4514 12.0563 40.0688C11.8934 39.4988 12.2315 39.1794 13.3341 38.8617C14.1586 38.624 14.9432 38.4112 15.0779 38.3885C15.2122 38.3662 16.1089 41.0071 17.0709 44.2574Z" fill="#FF7C00"/>
<rect x="0.5" y="0.5" width="64" height="64" rx="32" stroke="#3D4857"/>
</svg>
