<svg width="24" height="25" viewBox="0 0 24 25" fill="none" xmlns="http://www.w3.org/2000/svg">
<g id="24 / various / form">
<path id="icon" fill-rule="evenodd" clip-rule="evenodd" d="M20.1818 3.5H3.81818C2.81403 3.5 2 4.39543 2 5.5V7.5C2 8.60457 2.81403 9.5 3.81818 9.5H20.1818C21.186 9.5 22 8.60457 22 7.5V5.5C22 4.39543 21.186 3.5 20.1818 3.5ZM3.81818 11.5H20.1818C21.186 11.5 22 12.3954 22 13.5V15.5C22 16.6046 21.186 17.5 20.1818 17.5H3.81818C2.81403 17.5 2 16.6046 2 15.5V13.5C2 12.3954 2.81403 11.5 3.81818 11.5ZM4 13.5V15.5H20V13.5H4ZM4 5.5V7.5H20V5.5H4ZM14 19.5H2V21.5H14V19.5Z" fill="#C75633"/>
</g>
</svg>
