<svg width="255" height="235" viewBox="0 0 255 235" fill="none" xmlns="http://www.w3.org/2000/svg">
<mask id="mask0_70_26099" style="mask-type:alpha" maskUnits="userSpaceOnUse" x="0" y="0" width="255" height="235">
<rect width="255" height="235" fill="#C4C4C4"/>
</mask>
<g mask="url(#mask0_70_26099)">
<g opacity="0.8">
<g opacity="0.7">
<path opacity="0.9" d="M106.337 54.2604C98.3223 56.8184 91.9178 63.0751 92.0406 68.2838L95.0304 196.76C95.1363 201.947 101.74 204.099 109.771 201.562C117.803 199.026 124.19 192.747 124.068 187.539L121.095 59.0841C120.972 53.8754 114.476 51.6399 106.337 54.2604Z" fill="#FF7C00"/>
<path opacity="0.53" d="M128.168 47.3462C120.137 49.8827 113.749 56.1609 113.855 61.3481L116.845 189.824C116.951 195.011 123.554 197.163 131.569 194.605C139.584 192.047 145.988 185.79 145.882 180.603L142.909 52.1484C142.786 46.9397 136.183 44.7882 128.168 47.3462Z" fill="#FF7C00"/>
<path opacity="0.9" d="M149.983 40.4103C141.968 42.9683 135.564 49.225 135.686 54.4337L138.659 182.888C138.765 188.075 145.369 190.227 153.4 187.69C161.432 185.154 167.819 178.876 167.697 173.667L164.814 45.1069C164.618 40.0253 158.014 37.8738 149.983 40.4103Z" fill="#FF7C00"/>
<path opacity="0.53" d="M171.814 33.4962C163.783 36.0327 157.395 42.3108 157.501 47.498L160.491 175.974C160.597 181.161 167.2 183.313 175.215 180.755C183.229 178.197 189.634 171.94 189.528 166.753L186.555 38.2983C186.54 33.0055 179.829 30.9382 171.814 33.4962Z" fill="#FF7C00"/>
<path opacity="0.6" d="M193.629 26.5605C185.614 29.1185 179.209 35.3751 179.332 40.5838L182.305 169.038C182.411 174.226 189.014 176.377 197.046 173.841C205.078 171.304 211.465 165.026 211.342 159.817L208.37 31.3626C208.264 26.1754 201.66 24.024 193.629 26.5605Z" fill="#FF7C00"/>
<path opacity="0.9" d="M215.46 19.6461C207.428 22.1826 201.041 28.4607 201.147 33.6479L204.12 162.103C204.242 167.311 210.846 169.463 218.861 166.905C226.875 164.347 233.28 158.09 233.174 152.903L230.184 24.4267C230.078 19.2395 223.475 17.0881 215.46 19.6461Z" fill="#FF7C00"/>
<path opacity="0.7" d="M106.337 54.2603C98.3223 56.8183 91.9179 63.075 92.0406 68.2837L93.0477 111.979C93.1536 117.166 99.7786 119.301 107.772 116.76C115.765 114.219 122.208 107.967 122.085 102.758L121.078 59.0625C120.972 53.8753 114.476 51.6398 106.337 54.2603Z" fill="#FF7C00"/>
<path opacity="0.7" d="M128.168 47.3462C120.137 49.8826 113.749 56.1608 113.855 61.348L114.98 109.493C115.103 114.702 121.69 116.832 129.721 114.295C137.753 111.759 144.14 105.48 144.013 100.31L142.909 52.1483C142.786 46.9396 136.183 44.7882 128.168 47.3462Z" fill="#FF7C00"/>
<path opacity="0.7" d="M149.983 40.4104C141.968 42.9684 135.564 49.225 135.686 54.4337L136.597 93.6629C136.703 98.8501 143.306 101.002 151.321 98.4435C159.336 95.8856 165.757 89.6504 165.634 84.4417L164.814 45.1069C164.618 40.0254 158.014 37.8739 149.983 40.4104Z" fill="#FF7C00"/>
<path opacity="0.7" d="M171.814 33.4961C163.783 36.0326 157.395 42.3108 157.501 47.498L158.753 101.611C158.859 106.798 165.484 108.933 173.494 106.413C181.504 103.893 187.935 97.5815 187.791 92.3896L186.555 38.2983C186.54 33.0055 179.829 30.9381 171.814 33.4961Z" fill="#FF7C00"/>
<path opacity="0.7" d="M193.629 26.5604C185.614 29.1184 179.209 35.3751 179.332 40.5838L180.375 85.7425C180.497 90.9512 187.101 93.1027 195.116 90.5447C203.13 87.9867 209.535 81.73 209.429 76.5428L208.37 31.3625C208.264 26.1754 201.66 24.0239 193.629 26.5604Z" fill="#FF7C00"/>
<path opacity="0.7" d="M215.46 19.6461C207.428 22.1826 201.041 28.4607 201.147 33.6479L202.14 75.8634C202.246 81.0506 208.849 83.202 216.864 80.644C224.879 78.086 231.283 71.8293 231.177 66.6422L230.184 24.4267C230.078 19.2395 223.475 17.0881 215.46 19.6461Z" fill="#FF7C00"/>
</g>
</g>
<g style="mix-blend-mode:multiply">
<g style="mix-blend-mode:multiply">
<path d="M208.06 223.198C206.61 223.603 204.615 221.141 203.719 217.647C202.823 214.153 203.171 211.141 204.626 210.697C206.081 210.253 208.075 212.715 208.95 216.226C209.824 219.737 209.531 222.775 208.06 223.198ZM233.832 13.981L228.348 15.5653C225.332 6.65628 221.178 0.370025 218.649 1.16886L80.3604 40.3201C77.5034 41.0982 77.5256 50.4767 80.5784 61.1603C83.6313 71.8439 88.3073 79.9059 91.3148 79.0102L229.642 39.8636C232.221 39.1293 232.43 31.6854 230.315 22.5562L232.27 21.9982L238.034 42.6622L174.921 86.9221C172.358 88.3828 170.28 90.5626 168.942 93.1922C168.355 95.7574 168.578 98.4419 169.58 100.876L169.769 101.56L179.61 136.302L175.662 137.413C175.308 137.489 174.974 137.641 174.682 137.857C174.391 138.074 174.15 138.35 173.975 138.668C173.8 138.986 173.695 139.337 173.667 139.699C173.639 140.061 173.689 140.424 173.814 140.765C174.505 142.27 176.909 144.724 177.704 146.183L199.066 227.561C199.889 230.385 204.578 231.33 209.715 229.878C214.852 228.426 218.338 225.041 217.626 222.269L193.141 141.772C193.014 140.103 193.788 136.794 193.623 135.12C193.423 134.426 192.956 133.839 192.324 133.489C191.692 133.138 190.948 133.051 190.253 133.249L186.468 134.302L176.643 99.5824C176.491 99.3888 176.491 99.0774 176.408 98.795C176.069 97.7596 175.827 96.6945 175.688 95.6139C176.631 94.5277 177.735 93.5936 178.963 92.8446L244.22 47.1162C244.837 46.6818 245.303 46.0659 245.554 45.354C245.805 44.6422 245.827 43.8699 245.619 43.1443L238.09 16.5453C237.839 15.6568 237.259 14.8972 236.468 14.4209C235.677 13.9446 234.735 13.7873 233.832 13.981V13.981Z" fill="#E6DFCF"/>
</g>
</g>
<path d="M188.124 139.212L181.152 141.198L169.876 101.476L169.688 100.792C168.686 98.3578 168.463 95.6733 169.05 93.1081C170.387 90.4785 172.465 88.2988 175.028 86.8381L238.141 42.578L232.378 21.9141L88.8488 62.5629L86.8603 55.5889L233.832 13.981C234.757 13.7194 235.747 13.835 236.587 14.3026C237.427 14.7701 238.047 15.5514 238.313 16.4752L245.841 43.0744C246.05 43.7999 246.027 44.5723 245.776 45.2841C245.526 45.9959 245.059 46.6118 244.442 47.0461L179.202 92.7961C177.975 93.5452 176.87 94.4792 175.927 95.5654C176.067 96.646 176.308 97.7112 176.648 98.7465C176.816 98.9617 176.817 99.273 176.882 99.5339L188.124 139.212Z" fill="#7B9599"/>
<path d="M185.337 138.307L174.982 101.713C174.848 101.541 174.847 101.23 174.76 100.986C174.016 99.1889 173.785 97.2213 174.092 95.3016C175.272 93.3638 176.913 91.7474 178.868 90.596L243.785 45.0983L236.428 19.1622L93.0167 59.6502L92.799 58.8844L236.648 18.1582C236.701 18.1433 236.756 18.1392 236.811 18.1462C236.865 18.1531 236.918 18.1708 236.965 18.1984C237.013 18.226 237.054 18.2628 237.087 18.3067C237.12 18.3506 237.144 18.4006 237.157 18.4539L244.707 45.0362C244.722 45.119 244.713 45.2043 244.683 45.2828C244.653 45.3614 244.602 45.4302 244.536 45.482L179.318 91.2152C177.736 92.1499 176.336 93.3621 175.185 94.7937L174.601 95.5974L174.577 96.5865C174.672 98.0025 174.96 99.399 175.432 100.737L175.65 101.503L186.026 138.08L185.337 138.307Z" fill="#476166"/>
<path d="M181.252 138.623L170.446 100.476L170.24 99.7703C169.363 97.6591 169.126 95.3369 169.558 93.0925C170.821 90.7995 172.688 88.896 174.956 87.5878L239.041 42.5328L232.449 19.258L88.966 60.0096L87.8437 56.1373L233.263 14.9811C233.527 14.8992 233.805 14.8724 234.08 14.9025C234.355 14.9326 234.621 15.0188 234.862 15.1559C235.102 15.2929 235.312 15.4778 235.478 15.6992C235.644 15.9206 235.763 16.1738 235.827 16.443L243.356 43.042C243.47 43.444 243.457 43.8714 243.318 44.2654C243.179 44.6595 242.922 45.0008 242.581 45.2424L177.24 90.8634C175.861 91.7165 174.622 92.7787 173.569 94.012L173.287 94.4054L173.265 94.9084C173.38 96.1532 173.642 97.38 174.044 98.5636C174.212 98.7787 174.23 99.1116 174.279 99.351L185.119 137.541L181.252 138.623Z" fill="#B8C9CC"/>
<path d="M212.505 63.7705C201.242 71.7465 191.875 77.893 191.577 77.4674C191.279 77.0418 200.162 70.2331 211.43 62.2188C222.698 54.2045 232.077 48.1178 232.375 48.5434C232.673 48.969 223.79 55.7777 212.505 63.7705Z" fill="white"/>
<path d="M176.15 116.367C177.651 121.167 178.788 126.072 179.552 131.042C177.718 126.409 176.238 121.644 175.126 116.786C173.627 111.986 172.49 107.081 171.724 102.111C173.562 106.743 175.041 111.509 176.15 116.367V116.367Z" fill="white"/>
<path d="M172.851 93.3601C172.03 94.3488 170.959 94.8399 170.308 94.2739C169.658 93.7079 169.891 92.5889 170.712 91.6002C171.533 90.6115 172.605 90.1203 173.238 90.6648C173.872 91.2094 173.672 92.3714 172.851 93.3601Z" fill="white"/>
<path d="M218.692 1.13534L80.4034 40.2866C77.5464 41.0647 77.5686 50.4432 80.6214 61.1268C83.6742 71.8104 88.3503 79.8724 91.3578 78.9766L229.685 39.83C232.542 39.052 232.481 29.6688 229.445 19.0067C226.409 8.34459 221.614 0.306814 218.692 1.13534Z" fill="#FF7C00"/>
<path d="M228.031 16.8881C226.74 12.2607 224.879 7.81155 222.49 3.64308C221.06 1.81441 219.692 0.907647 218.606 1.20245L80.3173 40.3537C77.4604 41.1318 77.4826 50.5103 80.5354 61.1939C81.7618 65.8512 83.5959 70.3271 85.9904 74.5061C87.4037 76.3133 88.7498 77.2369 89.8361 76.942L228.297 37.6562C231.154 36.8782 231.046 27.567 228.031 16.8881Z" fill="#C75633"/>
<path d="M83.823 63.5808C80.7917 52.8804 80.7049 43.5524 83.6049 42.7407L221.915 3.57259C222.077 3.54176 222.241 3.52932 222.406 3.53549C220.993 1.72833 219.642 0.843093 218.556 1.1379L80.2669 40.2891C77.4099 41.0672 77.4321 50.4457 80.4849 61.1293C83.2939 71.1022 87.6764 78.7003 90.594 79.019C87.451 74.3086 85.1592 69.0832 83.823 63.5808V63.5808Z" fill="#FF7C00"/>
<path d="M155.039 33.4052C183.831 25.2431 208.967 15.9523 224.869 8.05849C224.185 6.52449 223.42 5.02816 222.576 3.57592C221.146 1.74725 219.778 0.84049 218.692 1.1353L80.4034 40.2866C78.7309 40.7624 78.0602 44.0259 78.3924 48.7934C95.9274 47.5967 124.1 42.2765 155.039 33.4052Z" fill="#FF7C00"/>
<path d="M217.414 5.39414C217.59 6.01879 188.267 14.8743 151.9 25.1813C115.533 35.4884 85.9101 43.2956 85.8195 42.6037C85.7289 41.9118 114.966 33.1236 151.333 22.8165C187.7 12.5095 217.237 4.76949 217.414 5.39414Z" fill="white"/>
<path d="M81.9409 42.8287C82.585 42.8103 83.2465 45.5174 83.4022 48.8628C83.558 52.2081 83.1229 54.9753 82.4956 55.0152C81.8683 55.055 81.19 52.3264 81.0343 48.9811C80.8785 45.6357 81.2921 42.8853 81.9409 42.8287Z" fill="white"/>
<path d="M226.785 38.249C226.468 37.1793 195.767 44.8933 158.194 55.5194C120.622 66.1455 90.4383 75.6736 90.7336 76.7602C91.0288 77.8468 121.768 70.1375 159.341 59.5114C196.914 48.8853 227.013 39.2496 226.785 38.249Z" fill="#FF7C00"/>
<path d="M190.497 133.162L175.77 137.329C175.415 137.405 175.081 137.557 174.79 137.773C174.499 137.99 174.258 138.266 174.083 138.584C173.907 138.902 173.802 139.253 173.775 139.615C173.747 139.977 173.797 140.34 173.921 140.681C174.613 142.186 177.017 144.64 177.811 146.099L199.174 227.477C199.996 230.301 204.685 231.246 209.822 229.794C214.959 228.342 218.446 224.957 217.734 222.185L193.249 141.688C193.122 140.019 193.896 136.71 193.73 135.036C193.53 134.372 193.085 133.808 192.484 133.46C191.883 133.111 191.173 133.005 190.497 133.162V133.162ZM208.06 223.198C206.61 223.604 204.615 221.142 203.719 217.647C202.823 214.153 203.171 211.141 204.626 210.697C206.081 210.253 208.075 212.715 208.95 216.226C209.824 219.738 209.531 222.775 208.06 223.198Z" fill="#3D4857"/>
<path d="M190.497 133.162L190.116 133.251C189.892 134.717 189.764 136.196 189.732 137.678L214.233 218.196C215.056 221.02 211.502 224.32 206.322 225.805C203.903 226.56 201.325 226.647 198.861 226.058L199.229 227.503C200.051 230.327 204.74 231.272 209.877 229.82C215.015 228.368 218.501 224.983 217.789 222.211L193.304 141.714C193.177 140.046 193.951 136.736 193.785 135.063C193.591 134.381 193.139 133.802 192.525 133.447C191.912 133.092 191.184 132.99 190.497 133.162Z" fill="#3D4857"/>
<path d="M192.008 148.033C191.742 146.542 190.712 145.579 189.973 145.741L182.871 147.828C182.166 148.033 181.801 149.428 182.348 150.837C182.896 152.246 184.516 155.071 185.126 156.604C185.736 158.138 186.421 159.058 187.161 158.896L192.195 157.49C192.901 157.285 192.988 155.934 192.718 154.481C192.448 153.028 192.336 149.649 192.008 148.033Z" fill="#B5C8CF"/>
<path d="M197.691 166.645C197.392 165.11 196.295 164.061 195.546 164.3L187.813 166.465C187.064 166.704 186.673 168.154 187.216 169.601C187.759 171.049 189.518 174.007 190.162 175.584C190.806 177.161 191.541 178.146 192.307 177.928L197.726 176.394C198.492 176.177 198.601 174.809 198.34 173.279C198.079 171.75 197.959 168.273 197.691 166.645Z" fill="#B5C8CF"/>
<path d="M203.956 187.506C203.637 185.814 202.439 184.636 201.635 184.849L193.413 187.187C192.626 187.421 192.217 189.024 192.834 190.656C193.452 192.288 195.382 195.598 196.063 197.354C196.743 199.11 197.558 200.241 198.383 200.012L204.081 198.434C204.889 198.183 204.978 196.657 204.767 194.881C204.556 193.104 204.328 189.4 203.956 187.506Z" fill="#B5C8CF"/>
<path d="M205.514 218.878C204.762 216.277 205.09 213.905 206.176 213.61C207.263 213.316 208.138 214.434 208.942 216.128C207.972 212.761 206.011 210.342 204.54 210.764C203.068 211.187 202.668 214.309 203.633 217.714C204.598 221.12 206.61 223.603 207.974 223.265L208.275 223.029C207.527 222.596 206.889 221.996 206.41 221.276C205.931 220.556 205.624 219.736 205.514 218.878V218.878Z" fill="#3D4857"/>
<path d="M202.043 228.354L180.659 146.992C179.907 145.5 177.563 143.034 176.769 141.575C176.677 141.226 176.655 140.864 176.705 140.507C176.754 140.15 176.873 139.807 177.056 139.497C177.238 139.186 177.48 138.915 177.768 138.699C178.056 138.483 178.383 138.325 178.732 138.236L193.459 134.069L193.588 133.968C193.225 133.565 192.756 133.271 192.235 133.121C191.713 132.971 191.16 132.971 190.638 133.121L175.911 137.287C175.556 137.364 175.222 137.516 174.931 137.732C174.64 137.949 174.399 138.225 174.224 138.543C174.049 138.86 173.944 139.212 173.916 139.574C173.888 139.936 173.938 140.299 174.062 140.64C174.754 142.145 177.158 144.599 177.952 146.058L199.315 227.436C199.7 228.286 200.321 229.007 201.104 229.513C201.887 230.019 202.799 230.29 203.732 230.292C202.943 229.884 202.339 229.191 202.043 228.354V228.354Z" fill="#B5C8CF"/>
<path d="M185.661 136.284C185.802 136.73 183.518 137.753 180.553 138.615C177.589 139.477 175.142 139.761 175.108 139.407C175.073 139.052 177.251 137.938 180.233 137.098C183.214 136.257 185.459 135.715 185.661 136.284Z" fill="white"/>
<path d="M201.003 223.967C199.347 219.633 197.992 215.19 196.946 210.67C195.588 206.238 194.522 201.721 193.753 197.149C195.409 201.483 196.765 205.926 197.81 210.445C199.161 214.88 200.227 219.396 201.003 223.967V223.967Z" fill="white"/>
<path d="M201.576 226.118C201.153 226.242 200.421 224.907 199.937 223.136C199.453 221.365 199.422 219.863 199.846 219.74C200.269 219.617 201.023 220.935 201.468 222.701C201.914 224.467 202.017 226.017 201.576 226.118Z" fill="white"/>
</g>
</svg>
