<svg width="253" height="271" viewBox="0 0 253 271" fill="none" xmlns="http://www.w3.org/2000/svg">
<g opacity="0.5">
<path opacity="0.5" d="M17.1805 78.3871C9.13682 80.8637 5.14804 86.9301 8.24924 91.9592L109.352 224.387C112.453 229.416 121.518 231.48 129.562 229.004C137.606 226.527 141.594 220.46 138.472 215.448L37.3903 83.0036C34.1835 77.8838 25.1401 75.8029 17.1805 78.3871Z" fill="#FF7C00"/>
<path opacity="0.5" d="M31.1011 64.4148C23.0406 66.8699 19.1116 72.9242 22.153 77.9654L131.052 217.437C134.174 222.449 143.218 224.53 151.261 222.054C159.305 219.577 163.315 213.494 160.176 208.46L51.1697 69.0724C48.1882 64.0191 39.1448 61.9382 31.1011 64.4148Z" fill="#FF7C00"/>
<path opacity="0.5" d="M47.6206 49.0692C39.577 51.5458 35.5882 57.6122 38.7109 62.6245L152.974 210.729C156.093 215.779 165.141 217.822 173.201 215.367C181.262 212.912 185.217 206.802 182.116 201.773L67.8304 53.6857C64.7293 48.6566 55.6643 46.5925 47.6206 49.0692Z" fill="#FF7C00"/>
<path opacity="0.5" d="M65.9518 36.5712C57.9081 39.0478 53.8978 45.131 57.0205 50.1433L174.927 204.102C178.049 209.114 187.114 211.178 195.158 208.701C203.202 206.225 207.19 200.158 204.068 195.146L86.1616 41.1877C83.0389 36.1754 73.9282 34.0085 65.9518 36.5712Z" fill="#FF7C00"/>
<path opacity="0.5" d="M94.9481 41.389C86.9044 43.8656 82.9156 49.932 86.0336 54.9826L196.688 197.276C199.811 202.288 208.855 204.369 216.898 201.892C224.942 199.416 228.931 193.349 225.83 188.32L115.175 46.027C111.992 41.0269 103.085 38.9432 94.9481 41.389Z" fill="#FF7C00"/>
<path opacity="0.5" d="M112.425 27.4442C104.364 29.8993 100.392 35.9872 103.494 41.0163L218.585 190.623C221.686 195.652 230.751 197.716 238.795 195.239C246.839 192.763 250.828 186.696 247.705 181.684L132.678 32.027C129.495 27.0269 120.469 24.9675 112.425 27.4442Z" fill="#FF7C00"/>
</g>
</svg>
