<svg width="379" height="263" viewBox="0 0 379 263" fill="none" xmlns="http://www.w3.org/2000/svg">
<g opacity="1">
<rect x="-4.56757" y="11.8027" width="5.99324" height="5.99324" fill="#3D4857"/>
<rect x="-4.56757" y="32.1797" width="5.99324" height="5.99324" fill="#3D4857"/>
<rect x="-4.56757" y="52.5568" width="5.99324" height="5.99324" fill="#3D4857"/>
<rect x="-4.56757" y="72.9338" width="5.99324" height="5.99324" fill="#3D4857"/>
<rect x="-4.56757" y="93.3108" width="5.99324" height="5.99324" fill="#3D4857"/>
<rect x="-4.56757" y="113.688" width="5.99324" height="5.99324" fill="#3D4857"/>
<rect x="-4.56757" y="134.065" width="5.99324" height="5.99324" fill="#3D4857"/>
<rect x="-4.56757" y="154.442" width="5.99324" height="5.99324" fill="#3D4857"/>
<rect x="-4.56757" y="174.819" width="5.99324" height="5.99324" fill="#3D4857"/>
<rect x="-4.56757" y="195.196" width="5.99324" height="5.99324" fill="#3D4857"/>
<rect x="-4.56757" y="215.573" width="5.99324" height="5.99324" fill="#3D4857"/>
<rect x="-4.56757" y="235.95" width="5.99324" height="5.99324" fill="#3D4857"/>
<rect x="-4.56757" y="256.327" width="5.99324" height="5.99324" fill="#3D4857"/>
<rect x="13.4122" y="11.8027" width="5.99324" height="5.99324" fill="#3D4857"/>
<rect x="13.4122" y="32.1797" width="5.99324" height="5.99324" fill="#3D4857"/>
<rect x="13.4122" y="52.5568" width="5.99324" height="5.99324" fill="#3D4857"/>
<rect x="13.4122" y="72.9338" width="5.99324" height="5.99324" fill="#3D4857"/>
<rect x="13.4122" y="93.3108" width="5.99324" height="5.99324" fill="#3D4857"/>
<rect x="13.4122" y="113.688" width="5.99324" height="5.99324" fill="#3D4857"/>
<rect x="13.4122" y="134.065" width="5.99324" height="5.99324" fill="#3D4857"/>
<rect x="13.4122" y="154.442" width="5.99324" height="5.99324" fill="#3D4857"/>
<rect x="13.4122" y="174.819" width="5.99324" height="5.99324" fill="#3D4857"/>
<rect x="13.4122" y="195.196" width="5.99324" height="5.99324" fill="#3D4857"/>
<rect x="13.4122" y="215.573" width="5.99324" height="5.99324" fill="#3D4857"/>
<rect x="13.4122" y="235.95" width="5.99324" height="5.99324" fill="#3D4857"/>
<rect x="13.4122" y="256.327" width="5.99324" height="5.99324" fill="#3D4857"/>
<rect x="31.3919" y="11.8027" width="5.99324" height="5.99324" fill="#3D4857"/>
<rect x="31.3919" y="32.1797" width="5.99324" height="5.99324" fill="#3D4857"/>
<rect x="31.3919" y="52.5568" width="5.99324" height="5.99324" fill="#3D4857"/>
<rect x="31.3919" y="72.9338" width="5.99324" height="5.99324" fill="#3D4857"/>
<rect x="31.3919" y="93.3108" width="5.99324" height="5.99324" fill="#3D4857"/>
<rect x="31.3919" y="113.688" width="5.99324" height="5.99324" fill="#3D4857"/>
<rect x="31.3919" y="134.065" width="5.99324" height="5.99324" fill="#3D4857"/>
<rect x="31.3919" y="154.442" width="5.99324" height="5.99324" fill="#3D4857"/>
<rect x="31.3919" y="174.819" width="5.99324" height="5.99324" fill="#3D4857"/>
<rect x="31.3919" y="195.196" width="5.99324" height="5.99324" fill="#3D4857"/>
<rect x="31.3919" y="215.573" width="5.99324" height="5.99324" fill="#3D4857"/>
<rect x="31.3919" y="235.95" width="5.99324" height="5.99324" fill="#3D4857"/>
<rect x="31.3919" y="256.327" width="5.99324" height="5.99324" fill="#3D4857"/>
<rect x="49.3716" y="11.8027" width="5.99324" height="5.99324" fill="#3D4857"/>
<rect x="49.3716" y="32.1797" width="5.99324" height="5.99324" fill="#3D4857"/>
<rect x="49.3716" y="52.5568" width="5.99324" height="5.99324" fill="#3D4857"/>
<rect x="49.3716" y="72.9338" width="5.99324" height="5.99324" fill="#3D4857"/>
<rect x="49.3716" y="93.3108" width="5.99324" height="5.99324" fill="#3D4857"/>
<rect x="49.3716" y="113.688" width="5.99324" height="5.99324" fill="#3D4857"/>
<rect x="49.3716" y="134.065" width="5.99324" height="5.99324" fill="#3D4857"/>
<rect x="49.3716" y="154.442" width="5.99324" height="5.99324" fill="#3D4857"/>
<rect x="49.3716" y="174.819" width="5.99324" height="5.99324" fill="#3D4857"/>
<rect x="49.3716" y="195.196" width="5.99324" height="5.99324" fill="#3D4857"/>
<rect x="49.3716" y="215.573" width="5.99324" height="5.99324" fill="#3D4857"/>
<rect x="49.3716" y="235.95" width="5.99324" height="5.99324" fill="#3D4857"/>
<rect x="49.3716" y="256.327" width="5.99324" height="5.99324" fill="#3D4857"/>
<rect x="67.3514" y="11.8027" width="5.99324" height="5.99324" fill="#3D4857"/>
<rect x="67.3514" y="32.1797" width="5.99324" height="5.99324" fill="#3D4857"/>
<rect x="67.3514" y="52.5568" width="5.99324" height="5.99324" fill="#3D4857"/>
<rect x="67.3514" y="72.9338" width="5.99324" height="5.99324" fill="#3D4857"/>
<rect x="67.3514" y="93.3108" width="5.99324" height="5.99324" fill="#3D4857"/>
<rect x="67.3514" y="113.688" width="5.99324" height="5.99324" fill="#3D4857"/>
<rect x="67.3514" y="134.065" width="5.99324" height="5.99324" fill="#3D4857"/>
<rect x="67.3514" y="154.442" width="5.99324" height="5.99324" fill="#3D4857"/>
<rect x="67.3514" y="174.819" width="5.99324" height="5.99324" fill="#3D4857"/>
<rect x="67.3514" y="195.196" width="5.99324" height="5.99324" fill="#3D4857"/>
<rect x="67.3514" y="215.573" width="5.99324" height="5.99324" fill="#3D4857"/>
<rect x="67.3514" y="235.95" width="5.99324" height="5.99324" fill="#3D4857"/>
<rect x="67.3514" y="256.327" width="5.99324" height="5.99324" fill="#3D4857"/>
<rect x="85.3311" y="11.8027" width="5.99324" height="5.99324" fill="#3D4857"/>
<rect x="85.3311" y="32.1797" width="5.99324" height="5.99324" fill="#3D4857"/>
<rect x="85.3311" y="52.5568" width="5.99324" height="5.99324" fill="#3D4857"/>
<rect x="85.3311" y="72.9338" width="5.99324" height="5.99324" fill="#3D4857"/>
<rect x="85.3311" y="93.3108" width="5.99324" height="5.99324" fill="#3D4857"/>
<rect x="85.3311" y="113.688" width="5.99324" height="5.99324" fill="#3D4857"/>
<rect x="85.3311" y="134.065" width="5.99324" height="5.99324" fill="#3D4857"/>
<rect x="85.3311" y="154.442" width="5.99324" height="5.99324" fill="#3D4857"/>
<rect x="85.3311" y="174.819" width="5.99324" height="5.99324" fill="#3D4857"/>
<rect x="85.3311" y="195.196" width="5.99324" height="5.99324" fill="#3D4857"/>
<rect x="85.3311" y="215.573" width="5.99324" height="5.99324" fill="#3D4857"/>
<rect x="85.3311" y="235.95" width="5.99324" height="5.99324" fill="#3D4857"/>
<rect x="85.3311" y="256.327" width="5.99324" height="5.99324" fill="#3D4857"/>
<rect x="103.311" y="11.8027" width="5.99324" height="5.99324" fill="#3D4857"/>
<rect x="103.311" y="32.1797" width="5.99324" height="5.99324" fill="#3D4857"/>
<rect x="103.311" y="52.5568" width="5.99324" height="5.99324" fill="#3D4857"/>
<rect x="103.311" y="72.9338" width="5.99324" height="5.99324" fill="#3D4857"/>
<rect x="103.311" y="93.3108" width="5.99324" height="5.99324" fill="#3D4857"/>
<rect x="103.311" y="113.688" width="5.99324" height="5.99324" fill="#3D4857"/>
<rect x="103.311" y="134.065" width="5.99324" height="5.99324" fill="#3D4857"/>
<rect x="103.311" y="154.442" width="5.99324" height="5.99324" fill="#3D4857"/>
<rect x="103.311" y="174.819" width="5.99324" height="5.99324" fill="#3D4857"/>
<rect x="103.311" y="195.196" width="5.99324" height="5.99324" fill="#3D4857"/>
<rect x="103.311" y="215.573" width="5.99324" height="5.99324" fill="#3D4857"/>
<rect x="103.311" y="235.95" width="5.99324" height="5.99324" fill="#3D4857"/>
<rect x="103.311" y="256.327" width="5.99324" height="5.99324" fill="#3D4857"/>
<rect x="121.291" y="11.8027" width="5.99324" height="5.99324" fill="#3D4857"/>
<rect x="121.291" y="32.1797" width="5.99324" height="5.99324" fill="#3D4857"/>
<rect x="121.291" y="52.5568" width="5.99324" height="5.99324" fill="#3D4857"/>
<rect x="121.291" y="72.9338" width="5.99324" height="5.99324" fill="#3D4857"/>
<rect x="121.291" y="93.3108" width="5.99324" height="5.99324" fill="#3D4857"/>
<rect x="121.291" y="113.688" width="5.99324" height="5.99324" fill="#3D4857"/>
<rect x="121.291" y="134.065" width="5.99324" height="5.99324" fill="#3D4857"/>
<rect x="121.291" y="154.442" width="5.99324" height="5.99324" fill="#3D4857"/>
<rect x="121.291" y="174.819" width="5.99324" height="5.99324" fill="#3D4857"/>
<rect x="121.291" y="195.196" width="5.99324" height="5.99324" fill="#3D4857"/>
<rect x="121.291" y="215.573" width="5.99324" height="5.99324" fill="#3D4857"/>
<rect x="121.291" y="235.95" width="5.99324" height="5.99324" fill="#3D4857"/>
<rect x="121.291" y="256.327" width="5.99324" height="5.99324" fill="#3D4857"/>
<rect x="139.27" y="11.8027" width="5.99324" height="5.99324" fill="#3D4857"/>
<rect x="139.27" y="32.1797" width="5.99324" height="5.99324" fill="#3D4857"/>
<rect x="139.27" y="52.5568" width="5.99324" height="5.99324" fill="#3D4857"/>
<rect x="139.27" y="72.9338" width="5.99324" height="5.99324" fill="#3D4857"/>
<rect x="139.27" y="93.3108" width="5.99324" height="5.99324" fill="#3D4857"/>
<rect x="139.27" y="113.688" width="5.99324" height="5.99324" fill="#3D4857"/>
<rect x="139.27" y="134.065" width="5.99324" height="5.99324" fill="#3D4857"/>
<rect x="139.27" y="154.442" width="5.99324" height="5.99324" fill="#3D4857"/>
<rect x="139.27" y="174.819" width="5.99324" height="5.99324" fill="#3D4857"/>
<rect x="139.27" y="195.196" width="5.99324" height="5.99324" fill="#3D4857"/>
<rect x="139.27" y="215.573" width="5.99324" height="5.99324" fill="#3D4857"/>
<rect x="139.27" y="235.95" width="5.99324" height="5.99324" fill="#3D4857"/>
<rect x="139.27" y="256.327" width="5.99324" height="5.99324" fill="#3D4857"/>
<rect x="157.25" y="11.8027" width="5.99324" height="5.99324" fill="#3D4857"/>
<rect x="157.25" y="32.1797" width="5.99324" height="5.99324" fill="#3D4857"/>
<rect x="157.25" y="52.5568" width="5.99324" height="5.99324" fill="#3D4857"/>
<rect x="157.25" y="72.9338" width="5.99324" height="5.99324" fill="#3D4857"/>
<rect x="157.25" y="93.3108" width="5.99324" height="5.99324" fill="#3D4857"/>
<rect x="157.25" y="113.688" width="5.99324" height="5.99324" fill="#3D4857"/>
<rect x="157.25" y="134.065" width="5.99324" height="5.99324" fill="#3D4857"/>
<rect x="157.25" y="154.442" width="5.99324" height="5.99324" fill="#3D4857"/>
<rect x="157.25" y="174.819" width="5.99324" height="5.99324" fill="#3D4857"/>
<rect x="157.25" y="195.196" width="5.99324" height="5.99324" fill="#3D4857"/>
<rect x="157.25" y="215.573" width="5.99324" height="5.99324" fill="#3D4857"/>
<rect x="157.25" y="235.95" width="5.99324" height="5.99324" fill="#3D4857"/>
<rect x="157.25" y="256.327" width="5.99324" height="5.99324" fill="#3D4857"/>
<rect x="175.23" y="11.8027" width="5.99324" height="5.99324" fill="#3D4857"/>
<rect x="175.23" y="32.1797" width="5.99324" height="5.99324" fill="#3D4857"/>
<rect x="175.23" y="52.5568" width="5.99324" height="5.99324" fill="#3D4857"/>
<rect x="175.23" y="72.9338" width="5.99324" height="5.99324" fill="#3D4857"/>
<rect x="175.23" y="93.3108" width="5.99324" height="5.99324" fill="#3D4857"/>
<rect x="175.23" y="113.688" width="5.99324" height="5.99324" fill="#3D4857"/>
<rect x="175.23" y="134.065" width="5.99324" height="5.99324" fill="#3D4857"/>
<rect x="175.23" y="154.442" width="5.99324" height="5.99324" fill="#3D4857"/>
<rect x="175.23" y="174.819" width="5.99324" height="5.99324" fill="#3D4857"/>
<rect x="175.23" y="195.196" width="5.99324" height="5.99324" fill="#3D4857"/>
<rect x="175.23" y="215.573" width="5.99324" height="5.99324" fill="#3D4857"/>
<rect x="175.23" y="235.95" width="5.99324" height="5.99324" fill="#3D4857"/>
<rect x="175.23" y="256.327" width="5.99324" height="5.99324" fill="#3D4857"/>
<rect x="193.209" y="11.8027" width="5.99324" height="5.99324" fill="#3D4857"/>
<rect x="193.209" y="32.1797" width="5.99324" height="5.99324" fill="#3D4857"/>
<rect x="193.209" y="52.5568" width="5.99324" height="5.99324" fill="#3D4857"/>
<rect x="193.209" y="72.9338" width="5.99324" height="5.99324" fill="#3D4857"/>
<rect x="193.209" y="93.3108" width="5.99324" height="5.99324" fill="#3D4857"/>
<rect x="193.209" y="113.688" width="5.99324" height="5.99324" fill="#3D4857"/>
<rect x="193.209" y="134.065" width="5.99324" height="5.99324" fill="#3D4857"/>
<rect x="193.209" y="154.442" width="5.99324" height="5.99324" fill="#3D4857"/>
<rect x="193.209" y="174.819" width="5.99324" height="5.99324" fill="#3D4857"/>
<rect x="193.209" y="195.196" width="5.99324" height="5.99324" fill="#3D4857"/>
<rect x="193.209" y="215.573" width="5.99324" height="5.99324" fill="#3D4857"/>
<rect x="193.209" y="235.95" width="5.99324" height="5.99324" fill="#3D4857"/>
<rect x="193.209" y="256.327" width="5.99324" height="5.99324" fill="#3D4857"/>
<rect x="211.189" y="11.8027" width="5.99324" height="5.99324" fill="#3D4857"/>
<rect x="211.189" y="32.1797" width="5.99324" height="5.99324" fill="#3D4857"/>
<rect x="211.189" y="52.5568" width="5.99324" height="5.99324" fill="#3D4857"/>
<rect x="211.189" y="72.9338" width="5.99324" height="5.99324" fill="#3D4857"/>
<rect x="211.189" y="93.3108" width="5.99324" height="5.99324" fill="#3D4857"/>
<rect x="211.189" y="113.688" width="5.99324" height="5.99324" fill="#3D4857"/>
<rect x="211.189" y="134.065" width="5.99324" height="5.99324" fill="#3D4857"/>
<rect x="211.189" y="154.442" width="5.99324" height="5.99324" fill="#3D4857"/>
<rect x="211.189" y="174.819" width="5.99324" height="5.99324" fill="#3D4857"/>
<rect x="211.189" y="195.196" width="5.99324" height="5.99324" fill="#3D4857"/>
<rect x="211.189" y="215.573" width="5.99324" height="5.99324" fill="#3D4857"/>
<rect x="211.189" y="235.95" width="5.99324" height="5.99324" fill="#3D4857"/>
<rect x="211.189" y="256.327" width="5.99324" height="5.99324" fill="#3D4857"/>
<rect x="229.169" y="11.8027" width="5.99324" height="5.99324" fill="#3D4857"/>
<rect x="229.169" y="32.1797" width="5.99324" height="5.99324" fill="#3D4857"/>
<rect x="229.169" y="52.5568" width="5.99324" height="5.99324" fill="#3D4857"/>
<rect x="229.169" y="72.9338" width="5.99324" height="5.99324" fill="#3D4857"/>
<rect x="229.169" y="93.3108" width="5.99324" height="5.99324" fill="#3D4857"/>
<rect x="229.169" y="113.688" width="5.99324" height="5.99324" fill="#3D4857"/>
<rect x="229.169" y="134.065" width="5.99324" height="5.99324" fill="#3D4857"/>
<rect x="229.169" y="154.442" width="5.99324" height="5.99324" fill="#3D4857"/>
<rect x="229.169" y="174.819" width="5.99324" height="5.99324" fill="#3D4857"/>
<rect x="229.169" y="195.196" width="5.99324" height="5.99324" fill="#3D4857"/>
<rect x="229.169" y="215.573" width="5.99324" height="5.99324" fill="#3D4857"/>
<rect x="229.169" y="235.95" width="5.99324" height="5.99324" fill="#3D4857"/>
<rect x="229.169" y="256.327" width="5.99324" height="5.99324" fill="#3D4857"/>
<rect x="247.149" y="11.8027" width="5.99324" height="5.99324" fill="#3D4857"/>
<rect x="247.149" y="32.1797" width="5.99324" height="5.99324" fill="#3D4857"/>
<rect x="247.149" y="52.5568" width="5.99324" height="5.99324" fill="#3D4857"/>
<rect x="247.149" y="72.9338" width="5.99324" height="5.99324" fill="#3D4857"/>
<rect x="247.149" y="93.3108" width="5.99324" height="5.99324" fill="#3D4857"/>
<rect x="247.149" y="113.688" width="5.99324" height="5.99324" fill="#3D4857"/>
<rect x="247.149" y="134.065" width="5.99324" height="5.99324" fill="#3D4857"/>
<rect x="247.149" y="154.442" width="5.99324" height="5.99324" fill="#3D4857"/>
<rect x="247.149" y="174.819" width="5.99324" height="5.99324" fill="#3D4857"/>
<rect x="247.149" y="195.196" width="5.99324" height="5.99324" fill="#3D4857"/>
<rect x="247.149" y="215.573" width="5.99324" height="5.99324" fill="#3D4857"/>
<rect x="247.149" y="235.95" width="5.99324" height="5.99324" fill="#3D4857"/>
<rect x="247.149" y="256.327" width="5.99324" height="5.99324" fill="#3D4857"/>
<rect x="265.128" y="11.8027" width="5.99324" height="5.99324" fill="#3D4857"/>
<rect x="265.128" y="32.1797" width="5.99324" height="5.99324" fill="#3D4857"/>
<rect x="265.128" y="52.5568" width="5.99324" height="5.99324" fill="#3D4857"/>
<rect x="265.128" y="72.9338" width="5.99324" height="5.99324" fill="#3D4857"/>
<rect x="265.128" y="93.3108" width="5.99324" height="5.99324" fill="#3D4857"/>
<rect x="265.128" y="113.688" width="5.99324" height="5.99324" fill="#3D4857"/>
<rect x="265.128" y="134.065" width="5.99324" height="5.99324" fill="#3D4857"/>
<rect x="265.128" y="154.442" width="5.99324" height="5.99324" fill="#3D4857"/>
<rect x="265.128" y="174.819" width="5.99324" height="5.99324" fill="#3D4857"/>
<rect x="265.128" y="195.196" width="5.99324" height="5.99324" fill="#3D4857"/>
<rect x="265.128" y="215.573" width="5.99324" height="5.99324" fill="#3D4857"/>
<rect x="265.128" y="235.95" width="5.99324" height="5.99324" fill="#3D4857"/>
<rect x="265.128" y="256.327" width="5.99324" height="5.99324" fill="#3D4857"/>
<rect x="283.108" y="11.8027" width="5.99324" height="5.99324" fill="#3D4857"/>
<rect x="283.108" y="32.1797" width="5.99324" height="5.99324" fill="#3D4857"/>
<rect x="283.108" y="52.5568" width="5.99324" height="5.99324" fill="#3D4857"/>
<rect x="283.108" y="72.9338" width="5.99324" height="5.99324" fill="#3D4857"/>
<rect x="283.108" y="93.3108" width="5.99324" height="5.99324" fill="#3D4857"/>
<rect x="283.108" y="113.688" width="5.99324" height="5.99324" fill="#3D4857"/>
<rect x="283.108" y="134.065" width="5.99324" height="5.99324" fill="#3D4857"/>
<rect x="283.108" y="154.442" width="5.99324" height="5.99324" fill="#3D4857"/>
<rect x="283.108" y="174.819" width="5.99324" height="5.99324" fill="#3D4857"/>
<rect x="283.108" y="195.196" width="5.99324" height="5.99324" fill="#3D4857"/>
<rect x="283.108" y="215.573" width="5.99324" height="5.99324" fill="#3D4857"/>
<rect x="283.108" y="235.95" width="5.99324" height="5.99324" fill="#3D4857"/>
<rect x="283.108" y="256.327" width="5.99324" height="5.99324" fill="#3D4857"/>
<rect x="301.088" y="11.8027" width="5.99324" height="5.99324" fill="#3D4857"/>
<rect x="301.088" y="32.1797" width="5.99324" height="5.99324" fill="#3D4857"/>
<rect x="301.088" y="52.5568" width="5.99324" height="5.99324" fill="#3D4857"/>
<rect x="301.088" y="72.9338" width="5.99324" height="5.99324" fill="#3D4857"/>
<rect x="301.088" y="93.3108" width="5.99324" height="5.99324" fill="#3D4857"/>
<rect x="301.088" y="113.688" width="5.99324" height="5.99324" fill="#3D4857"/>
<rect x="301.088" y="134.065" width="5.99324" height="5.99324" fill="#3D4857"/>
<rect x="301.088" y="154.442" width="5.99324" height="5.99324" fill="#3D4857"/>
<rect x="301.088" y="174.819" width="5.99324" height="5.99324" fill="#3D4857"/>
<rect x="301.088" y="195.196" width="5.99324" height="5.99324" fill="#3D4857"/>
<rect x="301.088" y="215.573" width="5.99324" height="5.99324" fill="#3D4857"/>
<rect x="301.088" y="235.95" width="5.99324" height="5.99324" fill="#3D4857"/>
<rect x="301.088" y="256.327" width="5.99324" height="5.99324" fill="#3D4857"/>
<rect x="319.068" y="11.8027" width="5.99324" height="5.99324" fill="#3D4857"/>
<rect x="319.068" y="32.1797" width="5.99324" height="5.99324" fill="#3D4857"/>
<rect x="319.068" y="52.5568" width="5.99324" height="5.99324" fill="#3D4857"/>
<rect x="319.068" y="72.9338" width="5.99324" height="5.99324" fill="#3D4857"/>
<rect x="319.068" y="93.3108" width="5.99324" height="5.99324" fill="#3D4857"/>
<rect x="319.068" y="113.688" width="5.99324" height="5.99324" fill="#3D4857"/>
<rect x="319.068" y="134.065" width="5.99324" height="5.99324" fill="#3D4857"/>
<rect x="319.068" y="154.442" width="5.99324" height="5.99324" fill="#3D4857"/>
<rect x="319.068" y="174.819" width="5.99324" height="5.99324" fill="#3D4857"/>
<rect x="319.068" y="195.196" width="5.99324" height="5.99324" fill="#3D4857"/>
<rect x="319.068" y="215.573" width="5.99324" height="5.99324" fill="#3D4857"/>
<rect x="319.068" y="235.95" width="5.99324" height="5.99324" fill="#3D4857"/>
<rect x="319.068" y="256.327" width="5.99324" height="5.99324" fill="#3D4857"/>
<rect x="337.047" y="11.8027" width="5.99324" height="5.99324" fill="#3D4857"/>
<rect x="337.047" y="32.1797" width="5.99324" height="5.99324" fill="#3D4857"/>
<rect x="337.047" y="52.5568" width="5.99324" height="5.99324" fill="#3D4857"/>
<rect x="337.047" y="72.9338" width="5.99324" height="5.99324" fill="#3D4857"/>
<rect x="337.047" y="93.3108" width="5.99324" height="5.99324" fill="#3D4857"/>
<rect x="337.047" y="113.688" width="5.99324" height="5.99324" fill="#3D4857"/>
<rect x="337.047" y="134.065" width="5.99324" height="5.99324" fill="#3D4857"/>
<rect x="337.047" y="154.442" width="5.99324" height="5.99324" fill="#3D4857"/>
<rect x="337.047" y="174.819" width="5.99324" height="5.99324" fill="#3D4857"/>
<rect x="337.047" y="195.196" width="5.99324" height="5.99324" fill="#3D4857"/>
<rect x="337.047" y="215.573" width="5.99324" height="5.99324" fill="#3D4857"/>
<rect x="337.047" y="235.95" width="5.99324" height="5.99324" fill="#3D4857"/>
<rect x="337.047" y="256.327" width="5.99324" height="5.99324" fill="#3D4857"/>
<rect x="355.027" y="11.8027" width="5.99324" height="5.99324" fill="#3D4857"/>
<rect x="355.027" y="32.1797" width="5.99324" height="5.99324" fill="#3D4857"/>
<rect x="355.027" y="52.5568" width="5.99324" height="5.99324" fill="#3D4857"/>
<rect x="355.027" y="72.9338" width="5.99324" height="5.99324" fill="#3D4857"/>
<rect x="355.027" y="93.3108" width="5.99324" height="5.99324" fill="#3D4857"/>
<rect x="355.027" y="113.688" width="5.99324" height="5.99324" fill="#3D4857"/>
<rect x="355.027" y="134.065" width="5.99324" height="5.99324" fill="#3D4857"/>
<rect x="355.027" y="154.442" width="5.99324" height="5.99324" fill="#3D4857"/>
<rect x="355.027" y="174.819" width="5.99324" height="5.99324" fill="#3D4857"/>
<rect x="355.027" y="195.196" width="5.99324" height="5.99324" fill="#3D4857"/>
<rect x="355.027" y="215.573" width="5.99324" height="5.99324" fill="#3D4857"/>
<rect x="355.027" y="235.95" width="5.99324" height="5.99324" fill="#3D4857"/>
<rect x="355.027" y="256.327" width="5.99324" height="5.99324" fill="#3D4857"/>
<rect x="373.007" y="11.8027" width="5.99324" height="5.99324" fill="#3D4857"/>
<rect x="373.007" y="32.1797" width="5.99324" height="5.99324" fill="#3D4857"/>
<rect x="373.007" y="52.5568" width="5.99324" height="5.99324" fill="#3D4857"/>
<rect x="373.007" y="72.9338" width="5.99324" height="5.99324" fill="#3D4857"/>
<rect x="373.007" y="93.3108" width="5.99324" height="5.99324" fill="#3D4857"/>
<rect x="373.007" y="113.688" width="5.99324" height="5.99324" fill="#3D4857"/>
<rect x="373.007" y="134.065" width="5.99324" height="5.99324" fill="#3D4857"/>
<rect x="373.007" y="154.442" width="5.99324" height="5.99324" fill="#3D4857"/>
<rect x="373.007" y="174.819" width="5.99324" height="5.99324" fill="#3D4857"/>
<rect x="373.007" y="195.196" width="5.99324" height="5.99324" fill="#3D4857"/>
<rect x="373.007" y="215.573" width="5.99324" height="5.99324" fill="#3D4857"/>
<rect x="373.007" y="235.95" width="5.99324" height="5.99324" fill="#3D4857"/>
<rect x="373.007" y="256.327" width="5.99324" height="5.99324" fill="#3D4857"/>
</g>
</svg>
